<?xml version="1.0" encoding="utf-8"?>
<COLLADA xmlns="http://www.collada.org/2005/11/COLLADASchema" version="1.4.1" xmlns:xsi="http://www.w3.org/2001/XMLSchema-instance">
  <asset>
    <contributor>
      <author>Blender User</author>
      <authoring_tool>Blender 3.6.0 commit date:2023-06-27, commit time:08:08, hash:c7fc78b81ecb</authoring_tool>
    </contributor>
    <created>2023-09-18T18:17:07</created>
    <modified>2023-09-18T18:17:07</modified>
    <unit name="meter" meter="1"/>
    <up_axis>Z_UP</up_axis>
  </asset>
  <library_effects>
    <effect id="Material_001-effect">
      <profile_COMMON>
        <technique sid="common">
          <lambert>
            <emission>
              <color sid="emission">0 0 0 1</color>
            </emission>
            <diffuse>
              <color sid="diffuse">0.01466943 0.01466943 0.01466943 1</color>
            </diffuse>
            <index_of_refraction>
              <float sid="ior">1.45</float>
            </index_of_refraction>
          </lambert>
        </technique>
      </profile_COMMON>
    </effect>
  </library_effects>
  <library_images/>
  <library_materials>
    <material id="Material_001-material" name="Material.001">
      <instance_effect url="#Material_001-effect"/>
    </material>
  </library_materials>
  <library_geometries>
    <geometry id="camera_interface-mesh" name="camera_interface">
      <mesh>
        <source id="camera_interface-mesh-positions">
          <float_array id="camera_interface-mesh-positions-array" count="1164">-22.50002 15 -1.03474e-4 -22.50002 15 -8.000103 -24.63474 14.84732 -8.000103 -24.63474 14.84732 -1.03474e-4 -26.726 14.3924 -8.000103 -26.726 14.3924 -1.03474e-4 -28.73124 13.64448 -8.000103 -28.73124 13.64448 -1.03474e-4 -30.60963 12.6188 -8.000103 -30.60963 12.6188 -1.03474e-4 -32.32292 11.33624 -8.000103 -32.32292 11.33624 -1.03474e-4 -33.83625 9.822912 -8.000103 -33.83625 9.822912 -1.03474e-4 -35.11882 8.109613 -8.000103 -35.11882 8.109613 -1.03474e-4 -36.14449 6.231225 -8.000103 -36.14449 6.231225 -1.03474e-4 -36.89241 4.225989 -8.000103 -36.89241 4.225989 -1.03474e-4 -37.34733 2.134723 -8.000103 -37.34733 2.134723 -1.03474e-4 -37.50001 9.53674e-7 -8.000103 -37.50001 9.53674e-7 -1.03474e-4 -37.34733 -2.134722 -8.000103 -37.34733 -2.134722 -1.03474e-4 -36.89241 -4.225987 -8.000103 -36.89241 -4.225987 -1.03474e-4 -36.14449 -6.231224 -8.000103 -36.14449 -6.231224 -1.03474e-4 -35.11882 -8.109613 -8.000103 -35.11882 -8.109613 -1.03474e-4 -33.83625 -9.82291 -8.000103 -33.83625 -9.82291 -1.03474e-4 -32.32292 -11.33624 -8.000103 -32.32292 -11.33624 -1.03474e-4 -30.60963 -12.6188 -8.000103 -30.60963 -12.6188 -1.03474e-4 -28.73124 -13.64448 -8.000103 -28.73124 -13.64448 -1.03474e-4 -26.726 -14.39239 -8.000103 -26.726 -14.39239 -1.03474e-4 -24.63474 -14.84732 -8.000103 -24.63474 -14.84732 -1.03474e-4 -22.50002 -15 -8.000103 -22.50002 -15 -1.03474e-4 22.49999 -15 -1.03474e-4 22.49999 -15 -8.000103 24.63471 -14.84732 -8.000103 24.63471 -14.84732 -1.03474e-4 26.72598 -14.39239 -8.000103 26.72598 -14.39239 -1.03474e-4 28.73121 -13.64448 -8.000103 28.73121 -13.64448 -1.03474e-4 30.6096 -12.6188 -8.000103 30.6096 -12.6188 -1.03474e-4 32.3229 -11.33624 -8.000103 32.3229 -11.33624 -1.03474e-4 33.83623 -9.82291 -8.000103 33.83623 -9.82291 -1.03474e-4 35.11879 -8.109613 -8.000103 35.11879 -8.109613 -1.03474e-4 36.14446 -6.231224 -8.000103 36.14446 -6.231224 -1.03474e-4 36.89238 -4.225987 -8.000103 36.89238 -4.225987 -1.03474e-4 37.3473 -2.134722 -8.000103 37.3473 -2.134722 -1.03474e-4 37.49998 9.53674e-7 -8.000103 37.49998 9.53674e-7 -1.03474e-4 37.3473 2.134723 -8.000103 37.3473 2.134723 -1.03474e-4 36.89238 4.225989 -8.000103 36.89238 4.225989 -1.03474e-4 36.14446 6.231225 -8.000103 36.14446 6.231225 -1.03474e-4 35.11879 8.109613 -8.000103 35.11879 8.109613 -1.03474e-4 33.83623 9.822912 -8.000103 33.83623 9.822912 -1.03474e-4 32.3229 11.33624 -8.000103 32.3229 11.33624 -1.03474e-4 30.6096 12.6188 -8.000103 30.6096 12.6188 -1.03474e-4 28.73121 13.64448 -8.000103 28.73121 13.64448 -1.03474e-4 26.72598 14.3924 -8.000103 26.72598 14.3924 -1.03474e-4 24.63471 14.84732 -8.000103 24.63471 14.84732 -1.03474e-4 22.49999 15 -8.000103 22.49999 15 -1.03474e-4 24.00859 -0.5330229 -1.03474e-4 23.89681 -0.7803116 -1.03474e-4 22.03147 -1.529866 -1.03474e-4 21.77966 -1.42868 -1.03474e-4 -20.92303 0.270402 -1.03474e-4 -21.44293 1.201076 -1.03474e-4 -21.25516 1.005153 -1.03474e-4 20.95162 -0.4031639 -1.03474e-4 -21.10319 0.7803125 -1.03474e-4 -20.99141 0.5330238 -1.03474e-4 21.04202 -0.6590414 -1.03474e-4 21.17437 -0.8959589 -1.03474e-4 23.74484 1.005153 -1.03474e-4 23.89681 0.7803125 -1.03474e-4 24.00859 0.5330238 -1.03474e-4 24.07697 -0.270401 -1.03474e-4 24.09999 9.53674e-7 -1.03474e-4 24.07697 0.270402 -1.03474e-4 -22.43211 1.598559 -1.03474e-4 -22.16293 1.56409 -1.03474e-4 21.54857 -1.286395 -1.03474e-4 21.34486 -1.107101 -1.03474e-4 -21.90344 1.484624 -1.03474e-4 -21.66112 1.362447 -1.03474e-4 2.989178 7.754418 -1.03474e-4 20.95162 0.4031658 -1.03474e-4 21.04202 0.6590424 -1.03474e-4 -2.334122 -9.38466 -1.03474e-4 -20.92303 -0.270401 -1.03474e-4 -1.982037 -9.752017 -1.03474e-4 -1.572937 -10.05459 -1.03474e-4 2.989178 -7.245582 -1.03474e-4 21.17437 0.8959599 -1.03474e-4 21.34486 1.107102 -1.03474e-4 21.54857 1.286395 -1.03474e-4 -2.619057 -8.963085 -1.03474e-4 -2.828648 -8.49942 -1.03474e-4 -2.95686 -8.007001 -1.03474e-4 2.903187 -8.255934 -1.03474e-4 2.733673 -8.735703 -1.03474e-4 2.485516 -9.179924 -1.03474e-4 2.165855 -9.575817 -1.03474e-4 2.903187 8.255935 -1.03474e-4 2.733673 8.735704 -1.03474e-4 2.485516 9.179925 -1.03474e-4 21.77966 1.428681 -1.03474e-4 22.03147 1.529868 -1.03474e-4 22.29676 1.587041 -1.03474e-4 -2.619057 -6.036915 -1.03474e-4 -2.334122 -5.615339 -1.03474e-4 -20.90001 9.53674e-7 -1.03474e-4 -1.982037 -5.247983 -1.03474e-4 -1.572937 -4.945412 -1.03474e-4 2.485516 5.820077 -1.03474e-4 2.165855 5.424184 -1.03474e-4 22.56789 1.598559 -1.03474e-4 22.83708 1.56409 -1.03474e-4 23.09656 1.484624 -1.03474e-4 -3.000015 -7.499999 -1.03474e-4 -2.95686 -6.992997 -1.03474e-4 -2.828648 -6.50058 -1.03474e-4 -1.118584 -4.716332 -1.03474e-4 -0.6320534 -4.567334 -1.03474e-4 -0.1273384 -4.502703 -1.03474e-4 2.989178 -7.754417 -1.03474e-4 -20.99141 -0.5330229 -1.03474e-4 -21.10319 -0.7803116 -1.03474e-4 -1.118584 -10.28367 -1.03474e-4 -21.25516 -1.005152 -1.03474e-4 -21.44293 -1.201076 -1.03474e-4 1.783886 -9.911992 -1.03474e-4 1.350597 -10.17878 -1.03474e-4 0.8784561 -10.3685 -1.03474e-4 23.33888 1.362447 -1.03474e-4 23.55707 1.201076 -1.03474e-4 22.29676 -1.58704 -1.03474e-4 22.56789 -1.598557 -1.03474e-4 0.3810387 -4.524298 -1.03474e-4 23.74484 -1.005152 -1.03474e-4 23.55707 -1.201076 -1.03474e-4 23.33888 -1.362446 -1.03474e-4 2.165855 -5.424183 -1.03474e-4 2.485516 -5.820075 -1.03474e-4 22.83708 -1.564088 -1.03474e-4 2.733673 -6.264296 -1.03474e-4 2.903187 -6.744065 -1.03474e-4 -23.65514 -1.107101 -1.03474e-4 -23.82563 -0.8959589 -1.03474e-4 2.733673 6.264297 -1.03474e-4 0.8784561 10.3685 -1.03474e-4 1.350597 10.17878 -1.03474e-4 0.8784561 -4.631499 -1.03474e-4 1.350597 -4.821221 -1.03474e-4 1.783886 -5.088008 -1.03474e-4 -23.95798 -0.6590414 -1.03474e-4 -24.04839 -0.4031639 -1.03474e-4 -24.09425 -0.1356887 -1.03474e-4 -24.09425 0.1356897 -1.03474e-4 1.783886 5.08801 -1.03474e-4 1.350597 4.821223 -1.03474e-4 0.8784561 4.631501 -1.03474e-4 -24.04839 0.4031658 -1.03474e-4 -23.95798 0.6590424 -1.03474e-4 -23.82563 0.8959599 -1.03474e-4 -23.65514 1.107102 -1.03474e-4 -23.45143 1.286395 -1.03474e-4 1.783886 9.911993 -1.03474e-4 2.165855 9.575819 -1.03474e-4 23.09656 -1.484622 -1.03474e-4 0.3810387 4.524299 -1.03474e-4 -0.1273384 4.502704 -1.03474e-4 -0.6320534 4.567334 -1.03474e-4 -1.118584 4.716334 -1.03474e-4 -2.95686 6.992999 -1.03474e-4 -22.96853 1.529868 -1.03474e-4 -2.828648 6.500581 -1.03474e-4 -22.70324 1.587041 -1.03474e-4 -2.619057 6.036916 -1.03474e-4 -2.828648 8.49942 -1.03474e-4 -2.619057 8.963087 -1.03474e-4 -2.334122 9.38466 -1.03474e-4 -22.43211 -1.598557 -1.03474e-4 -22.70324 -1.58704 -1.03474e-4 -22.96853 -1.529866 -1.03474e-4 -23.22034 -1.42868 -1.03474e-4 -23.45143 -1.286395 -1.03474e-4 -3.000015 7.500001 -1.03474e-4 -23.22034 1.428681 -1.03474e-4 -2.95686 8.007003 -1.03474e-4 0.3810387 -10.4757 -1.03474e-4 -0.1273384 -10.4973 -1.03474e-4 -0.6320534 -10.43267 -1.03474e-4 2.989178 7.245584 -1.03474e-4 2.903187 6.744067 -1.03474e-4 20.90575 0.1356897 -1.03474e-4 20.90575 -0.1356887 -1.03474e-4 -1.572937 4.945413 -1.03474e-4 -1.982037 5.247983 -1.03474e-4 -2.334122 5.61534 -1.03474e-4 -21.66112 -1.362446 -1.03474e-4 -21.90344 -1.484622 -1.03474e-4 -22.16293 -1.564088 -1.03474e-4 -1.982037 9.752017 -1.03474e-4 -1.572937 10.05459 -1.03474e-4 -1.118584 10.28367 -1.03474e-4 -0.6320534 10.43267 -1.03474e-4 -0.1273384 10.4973 -1.03474e-4 0.3810387 10.4757 -1.03474e-4 -2.334122 5.61534 -8.000103 -1.982037 5.247983 -8.000103 -3.000015 -7.499999 -8.000103 -2.619057 6.036916 -8.000103 -21.66112 -1.362446 -8.000103 -21.44293 -1.201076 -8.000103 20.95162 -0.4031639 -8.000103 -21.25516 -1.005152 -8.000103 -21.10319 -0.7803116 -8.000103 -20.99141 -0.5330229 -8.000103 -20.92303 -0.270401 -8.000103 20.90575 -0.1356887 -8.000103 -20.90001 9.53674e-7 -8.000103 20.90575 0.1356897 -8.000103 -20.92303 0.270402 -8.000103 -20.99141 0.5330238 -8.000103 23.89681 0.7803125 -8.000103 24.00859 0.5330238 -8.000103 24.07697 0.270402 -8.000103 24.09999 9.53674e-7 -8.000103 24.07697 -0.270401 -8.000103 24.00859 -0.5330229 -8.000103 2.485516 9.179925 -8.000103 2.165855 9.575819 -8.000103 -1.572937 4.945413 -8.000103 -1.118584 4.716334 -8.000103 -0.6320534 4.567334 -8.000103 -23.82563 0.8959599 -8.000103 -23.95798 0.6590424 -8.000103 -24.04839 0.4031658 -8.000103 -24.09425 0.1356897 -8.000103 -24.09425 -0.1356887 -8.000103 -24.04839 -0.4031639 -8.000103 -23.95798 -0.6590414 -8.000103 -23.82563 -0.8959589 -8.000103 -23.65514 -1.107101 -8.000103 -22.96853 -1.529866 -8.000103 -22.70324 -1.58704 -8.000103 21.77966 -1.42868 -8.000103 22.03147 -1.529866 -8.000103 1.783886 5.08801 -8.000103 2.165855 5.424184 -8.000103 20.95162 0.4031658 -8.000103 -3.000015 7.500001 -8.000103 -2.95686 6.992999 -8.000103 -2.828648 6.500581 -8.000103 -23.45143 -1.286395 -8.000103 -23.22034 -1.42868 -8.000103 -22.43211 -1.598557 -8.000103 -22.16293 -1.564088 -8.000103 -21.90344 -1.484622 -8.000103 -21.10319 0.7803125 -8.000103 -21.25516 1.005153 -8.000103 -21.44293 1.201076 -8.000103 -22.16293 1.56409 -8.000103 -22.43211 1.598559 -8.000103 -22.70324 1.587041 -8.000103 -22.96853 1.529868 -8.000103 -23.22034 1.428681 -8.000103 22.83708 1.56409 -8.000103 22.56789 1.598559 -8.000103 -23.45143 1.286395 -8.000103 -23.65514 1.107102 -8.000103 -2.619057 -8.963085 -8.000103 -2.334122 -9.38466 -8.000103 2.733673 -8.735703 -8.000103 2.485516 -9.179924 -8.000103 2.165855 -9.575817 -8.000103 22.29676 1.587041 -8.000103 22.03147 1.529868 -8.000103 21.77966 1.428681 -8.000103 1.783886 9.911993 -8.000103 1.350597 10.17878 -8.000103 0.8784561 10.3685 -8.000103 -21.66112 1.362447 -8.000103 -21.90344 1.484624 -8.000103 -2.828648 -8.49942 -8.000103 -0.1273384 4.502704 -8.000103 0.3810387 4.524299 -8.000103 0.8784561 4.631501 -8.000103 1.350597 4.821223 -8.000103 2.989178 7.754418 -8.000103 2.903187 8.255935 -8.000103 2.733673 8.735704 -8.000103 2.903187 -8.255934 -8.000103 2.989178 -7.754417 -8.000103 2.989178 -7.245582 -8.000103 21.54857 -1.286395 -8.000103 -1.982037 -9.752017 -8.000103 -1.572937 -10.05459 -8.000103 -1.118584 -10.28367 -8.000103 22.29676 -1.58704 -8.000103 22.56789 -1.598557 -8.000103 22.83708 -1.564088 -8.000103 23.09656 -1.484622 -8.000103 0.3810387 10.4757 -8.000103 -0.1273384 10.4973 -8.000103 -0.6320534 10.43267 -8.000103 -1.118584 10.28367 -8.000103 -1.572937 10.05459 -8.000103 -1.982037 9.752017 -8.000103 -2.334122 9.38466 -8.000103 -2.619057 8.963087 -8.000103 -2.828648 8.49942 -8.000103 -2.95686 8.007003 -8.000103 -2.95686 -8.007001 -8.000103 2.165855 -5.424183 -8.000103 1.783886 -5.088008 -8.000103 1.350597 -4.821221 -8.000103 0.8784561 -4.631499 -8.000103 0.3810387 -4.524298 -8.000103 -0.1273384 -4.502703 -8.000103 -0.6320534 -4.567334 -8.000103 -1.118584 -4.716332 -8.000103 -1.572937 -4.945412 -8.000103 -1.982037 -5.247983 -8.000103 -2.334122 -5.615339 -8.000103 -2.619057 -6.036915 -8.000103 23.89681 -0.7803116 -8.000103 23.74484 -1.005152 -8.000103 23.55707 -1.201076 -8.000103 23.33888 -1.362446 -8.000103 23.09656 1.484624 -8.000103 23.33888 1.362447 -8.000103 23.55707 1.201076 -8.000103 23.74484 1.005153 -8.000103 2.989178 7.245584 -8.000103 2.903187 6.744067 -8.000103 21.54857 1.286395 -8.000103 21.34486 1.107102 -8.000103 0.8784561 -10.3685 -8.000103 1.350597 -10.17878 -8.000103 1.783886 -9.911992 -8.000103 2.903187 -6.744065 -8.000103 2.733673 -6.264296 -8.000103 2.485516 -5.820075 -8.000103 -2.828648 -6.50058 -8.000103 -2.95686 -6.992997 -8.000103 2.485516 5.820077 -8.000103 2.733673 6.264297 -8.000103 21.04202 0.6590424 -8.000103 21.17437 0.8959599 -8.000103 21.04202 -0.6590414 -8.000103 21.17437 -0.8959589 -8.000103 21.34486 -1.107101 -8.000103 -0.6320534 -10.43267 -8.000103 -0.1273384 -10.4973 -8.000103 0.3810387 -10.4757 -8.000103</float_array>
          <technique_common>
            <accessor source="#camera_interface-mesh-positions-array" count="388" stride="3">
              <param name="X" type="float"/>
              <param name="Y" type="float"/>
              <param name="Z" type="float"/>
            </accessor>
          </technique_common>
        </source>
        <source id="camera_interface-mesh-normals">
          <float_array id="camera_interface-mesh-normals-array" count="1467">-0.07133978 0.9974521 0 -0.07133972 0.9974521 0 -0.2125645 0.9771471 0 -0.2125645 0.9771471 0 -0.3494644 0.9369497 0 -0.3494642 0.9369497 0 -0.4792488 0.8776791 0 -0.4792495 0.8776787 0 -0.599278 0.8005411 0 -0.5992797 0.8005399 0 -0.7071059 0.7071077 0 -0.7071077 0.7071059 0 -0.8005406 0.5992785 0 -0.8005406 0.5992786 0 -0.8776798 0.4792475 0 -0.8776783 0.4792502 0 -0.9369494 0.3494654 0 -0.9771471 0.2125645 0 -0.9771471 0.2125645 0 -0.9974521 0.07133972 0 -0.9974521 -0.07133966 0 -0.9771471 -0.2125647 0 -0.9771471 -0.2125647 0 -0.9369494 -0.3494653 0 -0.8776785 -0.4792501 0 -0.87768 -0.4792473 0 -0.8005403 -0.599279 0 -0.8005403 -0.599279 0 -0.7071081 -0.7071055 0 -0.7071063 -0.7071073 0 -0.5992794 -0.80054 0 -0.5992776 -0.8005412 0 -0.4792496 -0.8776787 0 -0.4792488 -0.8776792 0 -0.3494639 -0.9369499 0 -0.3494639 -0.9369499 0 -0.212565 -0.9771469 0 -0.212565 -0.977147 0 -0.0713393 -0.9974521 0 -0.0713393 -0.9974521 0 0 -1 0 0.0713393 -0.9974521 0 0.0713393 -0.9974521 0 0.212565 -0.9771469 0 0.212565 -0.977147 0 0.3494645 -0.9369497 0 0.3494645 -0.9369497 0 0.4792488 -0.8776791 0 0.4792488 -0.8776792 0 0.5992769 -0.8005419 0 0.5992776 -0.8005412 0 0.7071081 -0.7071055 0 0.8005403 -0.599279 0 0.8005403 -0.599279 0 0.87768 -0.4792473 0 0.87768 -0.4792473 0 0.9369494 -0.3494653 0 0.9771471 -0.2125647 0 0.9771471 -0.2125647 0 0.9974521 -0.07133966 0 0.9974521 0.07133972 0 0.9771471 0.2125645 0 0.9771471 0.2125645 0 0.9369494 0.3494654 0 0.8776798 0.4792475 0 0.8776798 0.4792475 0 0.8005406 0.5992785 0 0.8005406 0.5992786 0 0.7071077 0.7071059 0 0.599278 0.8005411 0 0.5992771 0.8005417 0 0.4792488 0.8776791 0 0.4792488 0.8776792 0 0.349465 0.9369495 0 0.3494648 0.9369495 0 0.2125645 0.9771471 0 0.2125645 0.9771471 0 0.07133978 0.9974521 0 0.07133972 0.9974521 0 0 1 0 0 0 1 0 0 1 0 0 1 0 0 1 0 0 1 0 0 1 0 0 1 0 0 1 0 0 1 0 0 1 0 0 1 0 0 1 0 0 1 0 0 1 0 0 1 0 0 1 0 0 1 0 0 1 0 0 1 0 0 1 0 0 1 0 0 1 0 0 1 0 0 1 0 0 1 0 0 1 0 0 1 0 0 1 0 0 1 0 0 1 0 0 1 0 0 1 0 0 1 0 0 1 0 0 1 0 0 1 0 0 1 0 0 1 0 0 1 0 0 1 0 0 1 0 0 1 0 0 1 0 0 1 0 0 1 0 0 1 0 0 1 0 0 1 0 0 1 0 0 1 0 0 1 0 0 1 0 0 1 0 0 1 0 0 1 0 0 1 0 0 1 0 0 1 0 0 1 0 0 1 0 0 1 0 0 1 0 0 1 0 0 1 0 0 1 0 0 1 0 0 1 0 0 1 0 0 1 0 0 1 0 0 1 0 0 1 0 0 1 0 0 1 0 0 1 0 0 1 0 0 1 0 0 1 0 0 1 0 0 1 0 0 1 0 0 1 0 0 1 0 0 1 0 0 1 0 0 1 0 0 1 0 0 1 0 0 1 0 0 1 0 0 1 0 0 1 0 0 1 0 0 1 0 0 1 0 0 1 0 0 1 0 0 1 0 0 1 0 0 1 0 0 1 0 0 1 0 0 1 0 0 1 0 0 1 0 0 1 0 0 1 0 0 1 0 0 1 0 0 -1 0 0 -1 0 0 -1 0 0 -1 0 0 -1 0 0 -1 0 0 -1 0 0 -1 1.33395e-7 0 -1 -1.04912e-6 0 -1 1.33381e-7 0 -1 0 0 -1 0 0 -1 0 0 -1 -9.18991e-7 0 -1 0 0 -1 0 0 -1 0 0 -1 -5.28236e-7 0 -1 1.3165e-7 0 -1 -8.53777e-7 0 -1 6.59652e-7 0 -1 1.41672e-6 0 -1 -1.67522e-6 0 -1 -9.26667e-7 0 -1 0 0 -1 -1.3971e-7 0 -1 3.68288e-7 0 -1 -1.94119e-6 0 -1 -4.07829e-7 0 -1 0 0 -1 3.43334e-7 0 -1 -1.19837e-7 0 -1 0 0 -1 0 0 -1 0 0 -1 -2.36634e-7 0 -1 -8.5646e-7 0 -1 -8.7167e-7 0 -1 7.16686e-7 0 -1 9.74744e-7 0 -1 -1.67522e-6 0 -1 1.85027e-7 0 -1 1.51647e-7 0 -1 -3.16048e-7 0 -1 3.51553e-7 0 -1 0 0 -1 1.27922e-6 0 -1 -8.09627e-6 0 -1 1.74872e-6 0 -1 1.64294e-7 0 -1 2.00251e-7 0 -1 0 0 -1 -3.66514e-7 0 -1 0 0 -1 -1.99487e-7 0 -1 -1.71214e-7 0 -1 8.80408e-7 0 -1 -6.51912e-7 0 -1 1.9499e-6 0 -1 2.94929e-7 0 -1 1.59861e-6 0 -1 -1.53881e-6 0 -1 0 0 -1 1.08358e-6 0 -1 -1.71215e-7 0 -1 0 0 -1 3.63879e-7 0 -1 -4.51968e-7 0 -1 4.54069e-7 0 -1 -3.15698e-7 0 -1 0 0 -1 0 0 -1 0 0 -1 1.54543e-7 0 -1 -5.36559e-7 0 -1 0 0 -1 0 0 -1 -8.68748e-7 0 -1 1.64294e-7 0 -1 -1.96108e-7 0 -1 3.00451e-6 0 -1 -8.09644e-6 0 -1 0 0 -1 0 0 -1 -2.28992e-7 0 -1 0 0 -1 0 0 -1 -1.33272e-7 0 -1 1.33395e-7 0 -1 0 0 -1 0 0 -1 3.33412e-7 0 -1 -1.99997e-7 0 -1 0 0 -1 0 0 -1 0 0 -1 0 0 -1 -2.0002e-7 0 -1 4.21449e-6 0 -1 -1.99961e-7 0 -1 0 0 -1 0 0 -1 7.68488e-7 0 -1 -1.64461e-6 0 -1 2.67598e-7 0 -1 0 0 -1 -2.17043e-7 0 -1 1.85027e-7 0 -1 0 0 -1 5.80084e-7 0 -1 0 0 -1 8.43757e-7 0 -1 0 0 -1 -6.07403e-7 0 -1 7.89287e-7 0 -1 -1.06562e-6 0 -1 2.62485e-7 0 -1 -1.53878e-6 0 -1 1.59861e-6 0 -1 -1.80555e-7 0 -1 -0.9963976 -0.08480423 0 -0.9963977 -0.08480429 0 -0.9677322 -0.251981 0 -0.9112278 -0.4119029 0 -0.9112277 -0.4119029 0 -0.8285085 -0.5599765 0 -0.7219601 -0.6919348 0 -0.5946315 -0.8039984 0 -0.450208 -0.8929238 0 -0.4502079 -0.8929238 0 -0.2928227 -0.9561668 0 -0.127015 -0.9919009 0 -0.127015 -0.9919009 0 0.0424444 -0.9990988 0 0.0424444 -0.9990988 0 0.2106771 -0.9775558 0 0.210677 -0.9775558 0 0.3728577 -0.9278886 0 0.3728576 -0.9278886 0 0.5243088 -0.8515283 0 0.5243088 -0.8515282 0 0.6606743 -0.7506726 0 0.6606743 -0.7506728 0 0.7780345 -0.6282218 0 0.7780344 -0.6282218 0 0.8730128 -0.4876974 0 0.8730127 -0.4876974 0 0.9428803 -0.3331318 0 0.9428802 -0.3331319 0 0.9856156 -0.1690034 0 0.9856156 -0.1690034 0 1 0 0 0.9856154 0.169004 0 0.9856154 0.169004 0 0.9428807 0.3331307 0 0.9428806 0.3331308 0 0.8730128 0.4876974 0 0.8730127 0.4876974 0 0.7780345 0.6282218 0 0.7780344 0.6282218 0 0.6606763 0.7506709 0 0.6606763 0.750671 0 0.5243062 0.8515298 0 0.5243062 0.8515298 0 0.3728547 0.9278898 0 0.3728546 0.9278898 0 0.2106804 0.977555 0 0.2106804 0.9775551 0 0.04244089 0.999099 0 0.04244089 0.999099 0 -0.127015 0.9919009 0 -0.127015 0.9919009 0 -0.2928227 0.9561668 0 -0.4502052 0.8929252 0 -0.4502052 0.8929253 0 -0.5946292 0.8040001 0 -0.7219618 0.691933 0 -0.8285085 0.5599765 0 -0.9112278 0.4119029 0 -0.9112277 0.4119029 0 -0.9677322 0.251981 0 -0.9963977 0.08480399 0 -0.9963977 0.08480399 0 -0.9963964 -0.08481824 0 -0.9677357 -0.2519679 0 -0.7219531 -0.691942 0 -0.5946382 -0.8039934 0 -0.1270168 -0.9919006 0 0.04244381 -0.9990988 0 0.8730188 -0.4876866 0 0.9428759 -0.3331444 0 0.9428763 0.3331432 0 0.8730188 0.4876868 0 0.04244029 0.9990991 0 -0.1270167 0.9919006 0 -0.594636 0.8039951 0 -0.7219548 0.6919403 0 -0.9677357 0.2519679 0 -0.9963965 0.08481794 0 0.996397 -0.08481264 0 0.9963969 -0.08481264 0 0.9677346 -0.2519716 0 0.9677346 -0.2519716 0 0.9112278 -0.4119032 0 0.82851 -0.5599744 0 0.82851 -0.5599743 0 0.7219535 -0.6919416 0 0.7219538 -0.6919413 0 0.5946367 -0.8039945 0 0.5946368 -0.8039945 0 0.4502023 -0.8929266 0 0.4502024 -0.8929266 0 0.2928228 -0.9561668 0 0.1270182 -0.9919005 0 -0.04243999 -0.9990991 0 -0.04243999 -0.9990991 0 -0.2106791 -0.9775553 0 -0.3728567 -0.9278889 0 -0.3728566 -0.9278891 0 -0.5243076 -0.8515291 0 -0.6606742 -0.7506728 0 -0.6606745 -0.7506725 0 -0.7780361 -0.6282196 0 -0.7780361 -0.6282196 0 -0.8730133 -0.4876965 0 -0.8730133 -0.4876965 0 -0.9428773 -0.3331403 0 -0.9856168 -0.1689956 0 -1 0 0 -0.9856168 0.1689955 0 -0.9428771 0.3331409 0 -0.8730138 0.4876958 0 -0.8730138 0.4876957 0 -0.7780361 0.6282196 0 -0.7780361 0.6282196 0 -0.6606744 0.7506726 0 -0.6606743 0.7506728 0 -0.5243062 0.8515299 0 -0.3728566 0.9278891 0 -0.3728567 0.9278889 0 -0.2106809 0.9775549 0 -0.2106809 0.9775549 0 -0.04243999 0.9990991 0 -0.04243999 0.9990991 0 0.1270163 0.9919007 0 0.1270163 0.9919007 0 0.2928262 0.9561657 0 0.2928264 0.9561657 0 0.4502009 0.8929274 0 0.4502009 0.8929274 0 0.5946367 0.8039945 0 0.5946368 0.8039945 0 0.7219538 0.6919414 0 0.7219536 0.6919415 0 0.82851 0.5599744 0 0.82851 0.5599743 0 0.9112278 0.4119032 0 0.9677348 0.2519711 0 0.9677348 0.2519711 0 0.996397 0.08481264 0 0.9963969 0.08481264 0 0.9677346 -0.2519721 0 0.9677345 -0.251972 0 0.9112283 -0.4119017 0 0.8285089 -0.5599762 0 0.8285088 -0.5599761 0 0.7219544 -0.6919407 0 0.7219547 -0.6919404 0 0.5946355 -0.8039955 0 0.5946356 -0.8039954 0 0.4502038 -0.8929259 0 0.4502039 -0.8929259 0 0.2928262 -0.9561657 0 0.2928263 -0.9561657 0 0.1270163 -0.9919007 0 0.1270163 -0.9919007 0 -0.04244375 -0.9990988 0 -0.04244375 -0.9990988 0 -0.2106773 -0.9775556 0 -0.6606732 -0.7506738 0 -0.6606734 -0.7506735 0 -0.7780368 -0.6282187 0 -0.778037 -0.6282187 0 -0.8730138 -0.4876958 0 -0.8730138 -0.4876957 0 -0.9428771 -0.3331409 0 -0.9856168 0.1689956 0 -0.9428775 0.3331397 0 -0.8730129 0.4876974 0 -0.8730129 0.4876973 0 -0.7780368 0.6282187 0 -0.778037 0.6282187 0 -0.6606734 0.7506736 0 -0.6606732 0.7506737 0 -0.5243076 0.8515291 0 0.5946355 0.8039955 0 0.5946356 0.8039954 0 0.7219546 0.6919404 0 0.7219545 0.6919406 0</float_array>
          <technique_common>
            <accessor source="#camera_interface-mesh-normals-array" count="489" stride="3">
              <param name="X" type="float"/>
              <param name="Y" type="float"/>
              <param name="Z" type="float"/>
            </accessor>
          </technique_common>
        </source>
        <vertices id="camera_interface-mesh-vertices">
          <input semantic="POSITION" source="#camera_interface-mesh-positions"/>
        </vertices>
        <triangles material="Material_001-material" count="788">
          <input semantic="VERTEX" source="#camera_interface-mesh-vertices" offset="0"/>
          <input semantic="NORMAL" source="#camera_interface-mesh-normals" offset="1"/>
          <p>0 0 1 0 2 0 0 1 2 1 3 1 3 2 2 2 4 2 3 3 4 3 5 3 5 4 4 4 6 4 5 5 6 5 7 5 7 6 6 6 8 6 7 7 8 7 9 7 9 8 8 8 10 8 9 9 10 9 11 9 11 10 10 10 12 10 11 11 12 11 13 11 13 12 12 12 14 12 13 13 14 13 15 13 15 14 14 14 16 14 15 15 16 15 17 15 17 16 16 16 18 16 17 16 18 16 19 16 19 17 18 17 20 17 19 18 20 18 21 18 21 19 20 19 22 19 21 19 22 19 23 19 23 20 22 20 24 20 23 20 24 20 25 20 25 21 24 21 26 21 25 22 26 22 27 22 27 23 26 23 28 23 27 23 28 23 29 23 29 24 28 24 30 24 29 25 30 25 31 25 31 26 30 26 32 26 31 27 32 27 33 27 33 28 32 28 34 28 33 29 34 29 35 29 35 30 34 30 36 30 35 31 36 31 37 31 37 32 36 32 38 32 37 33 38 33 39 33 39 34 38 34 40 34 39 35 40 35 41 35 41 36 40 36 42 36 41 37 42 37 43 37 43 38 42 38 44 38 43 39 44 39 45 39 46 40 45 40 47 40 47 40 45 40 44 40 46 41 47 41 48 41 46 42 48 42 49 42 49 43 48 43 50 43 49 44 50 44 51 44 51 45 50 45 52 45 51 46 52 46 53 46 53 47 52 47 54 47 53 48 54 48 55 48 55 49 54 49 56 49 55 50 56 50 57 50 57 51 56 51 58 51 57 51 58 51 59 51 59 52 58 52 60 52 59 53 60 53 61 53 61 54 60 54 62 54 61 55 62 55 63 55 63 56 62 56 64 56 63 56 64 56 65 56 65 57 64 57 66 57 65 58 66 58 67 58 67 59 66 59 68 59 67 59 68 59 69 59 69 60 68 60 70 60 69 60 70 60 71 60 71 61 70 61 72 61 71 62 72 62 73 62 73 63 72 63 74 63 73 63 74 63 75 63 75 64 74 64 76 64 75 65 76 65 77 65 77 66 76 66 78 66 77 67 78 67 79 67 79 68 78 68 80 68 79 68 80 68 81 68 81 69 80 69 82 69 81 70 82 70 83 70 83 71 82 71 84 71 83 72 84 72 85 72 85 73 84 73 86 73 85 74 86 74 87 74 87 75 86 75 88 75 87 76 88 76 89 76 89 77 88 77 90 77 89 78 90 78 91 78 0 79 91 79 1 79 1 79 91 79 90 79 92 80 93 80 65 80 94 81 95 81 96 81 97 80 98 80 99 80 99 80 98 80 100 80 100 80 101 80 99 80 99 82 101 82 96 82 99 80 96 80 102 80 102 80 96 80 103 80 79 80 104 80 77 80 77 83 104 83 105 83 77 80 105 80 75 80 75 84 105 84 106 84 92 80 65 80 107 80 107 85 65 85 67 85 107 80 67 80 108 80 108 80 67 80 69 80 108 80 69 80 109 80 109 80 69 80 71 80 109 80 71 80 106 80 106 80 71 80 73 80 106 86 73 86 75 86 99 87 110 87 111 87 95 80 112 80 96 80 96 88 112 88 113 88 96 80 113 80 103 80 111 80 114 80 99 80 99 89 114 89 115 89 99 90 115 90 97 90 116 91 117 91 118 91 119 80 120 80 121 80 121 80 120 80 122 80 63 80 65 80 123 80 116 92 79 92 81 92 118 80 124 80 116 80 116 93 124 93 125 93 116 94 125 94 126 94 119 80 127 80 120 80 120 95 127 95 128 95 120 96 128 96 129 96 130 80 131 80 46 80 46 97 131 97 132 97 46 98 132 98 133 98 134 80 89 80 135 80 135 99 89 99 91 99 135 100 91 100 136 100 126 80 137 80 116 80 116 101 137 101 138 101 116 80 138 80 79 80 79 102 138 102 139 102 140 80 141 80 142 80 142 103 141 103 143 103 142 104 143 104 144 104 145 80 146 80 99 80 81 80 83 80 116 80 116 105 83 105 85 105 116 80 85 80 134 80 134 80 85 80 87 80 134 106 87 106 89 106 139 80 147 80 79 80 79 107 147 107 148 107 79 108 148 108 149 108 129 80 150 80 120 80 120 80 150 80 151 80 120 80 151 80 142 80 142 109 151 109 152 109 142 110 152 110 140 110 144 80 153 80 142 80 142 111 153 111 154 111 142 112 154 112 155 112 55 113 57 113 156 113 156 114 57 114 59 114 156 115 59 115 123 115 123 116 59 116 61 116 123 80 61 80 63 80 46 80 49 80 130 80 130 117 49 117 51 117 130 80 51 80 156 80 156 118 51 118 53 118 156 105 53 105 55 105 120 80 157 80 122 80 122 119 157 119 158 119 122 80 158 80 159 80 159 120 158 120 160 120 159 121 160 121 161 121 133 80 162 80 46 80 46 122 162 122 163 122 46 123 163 123 164 123 149 80 165 80 79 80 79 124 165 124 166 124 79 80 166 80 104 80 94 125 96 125 167 125 167 126 96 126 142 126 167 80 142 80 168 80 168 80 142 80 155 80 168 127 155 127 169 127 93 128 170 128 65 128 65 129 170 129 171 129 65 130 171 130 172 130 173 80 174 80 175 80 175 131 174 131 176 131 175 132 176 132 177 132 178 80 179 80 31 80 145 80 99 80 180 80 91 133 181 133 182 133 169 80 183 80 168 80 168 134 183 134 184 134 168 80 184 80 175 80 175 135 184 135 185 135 175 136 185 136 173 136 31 137 179 137 29 137 29 138 179 138 186 138 29 139 186 139 27 139 27 140 186 140 187 140 27 141 187 141 25 141 25 142 187 142 188 142 25 80 188 80 23 80 23 80 188 80 189 80 23 80 189 80 21 80 146 80 190 80 99 80 99 143 190 143 191 143 99 144 191 144 192 144 21 80 189 80 19 80 19 145 189 145 193 145 19 80 193 80 17 80 17 146 193 146 194 146 17 147 194 147 15 147 15 148 194 148 195 148 15 80 195 80 13 80 13 149 195 149 196 149 13 150 196 150 197 150 182 80 198 80 91 80 91 151 198 151 199 151 91 152 199 152 136 152 177 80 123 80 175 80 175 80 123 80 65 80 175 80 65 80 200 80 200 153 65 153 172 153 192 80 201 80 99 80 99 154 201 154 202 154 99 155 202 155 110 155 110 156 202 156 203 156 110 157 203 157 204 157 205 80 206 80 207 80 207 158 206 158 208 158 207 80 208 80 209 80 210 80 211 80 0 80 0 159 211 159 212 159 45 160 213 160 43 160 43 161 213 161 214 161 43 80 214 80 41 80 41 162 214 162 215 162 41 80 215 80 39 80 39 163 215 163 216 163 39 80 216 80 37 80 37 164 216 164 217 164 37 80 217 80 35 80 35 165 217 165 178 165 35 80 178 80 33 80 33 80 178 80 31 80 205 80 218 80 206 80 206 80 218 80 13 80 206 80 13 80 219 80 219 166 13 166 197 166 210 80 0 80 220 80 220 167 0 167 3 167 220 168 3 168 5 168 164 80 221 80 46 80 46 169 221 169 222 169 46 80 222 80 45 80 45 170 222 170 223 170 45 171 223 171 159 171 116 80 224 80 117 80 117 172 224 172 225 172 117 80 225 80 226 80 226 80 225 80 180 80 226 173 180 173 227 173 227 80 180 80 99 80 204 174 228 174 110 174 110 175 228 175 229 175 110 80 229 80 208 80 208 176 229 176 230 176 208 177 230 177 209 177 5 178 7 178 220 178 220 179 7 179 9 179 220 80 9 80 218 80 218 180 9 180 11 180 218 80 11 80 13 80 161 80 231 80 159 80 159 181 231 181 232 181 159 80 232 80 45 80 45 182 232 182 233 182 45 183 233 183 213 183 212 80 234 80 0 80 0 184 234 184 235 184 0 185 235 185 236 185 236 80 237 80 0 80 0 186 237 186 238 186 0 80 238 80 91 80 91 187 238 187 239 187 91 188 239 188 181 188 240 189 241 189 18 189 32 190 30 190 242 190 240 189 18 189 243 189 244 189 245 189 246 189 246 191 245 191 247 191 246 189 247 189 248 189 248 189 249 189 246 189 246 192 249 192 250 192 246 193 250 193 251 193 251 194 250 194 252 194 251 189 252 189 253 189 253 195 252 195 254 195 253 196 254 196 255 196 256 189 74 189 257 189 257 197 74 197 72 197 257 198 72 198 258 198 258 199 72 199 70 199 258 189 70 189 259 189 259 189 70 189 68 189 259 189 68 189 260 189 260 189 68 189 66 189 260 189 66 189 261 189 262 189 263 189 90 189 241 200 264 200 18 200 18 201 264 201 265 201 18 202 265 202 266 202 267 189 268 189 18 189 18 203 268 203 269 203 18 204 269 204 20 204 20 189 269 189 270 189 20 205 270 205 22 205 22 189 270 189 271 189 22 206 271 206 24 206 24 189 271 189 26 189 26 207 271 207 272 207 26 189 272 189 28 189 28 208 272 208 273 208 28 189 273 189 30 189 30 209 273 209 274 209 30 210 274 210 275 210 30 211 276 211 277 211 47 212 278 212 279 212 280 213 281 213 282 213 14 189 283 189 16 189 16 214 283 214 284 214 16 189 284 189 18 189 18 215 284 215 285 215 18 189 285 189 243 189 275 189 286 189 30 189 30 216 286 216 287 216 30 217 287 217 276 217 277 189 288 189 30 189 30 218 288 218 289 218 30 219 289 219 246 219 246 220 289 220 290 220 246 221 290 221 244 221 255 222 291 222 253 222 253 223 291 223 292 223 253 224 292 224 293 224 294 189 295 189 18 189 295 189 296 189 18 189 18 225 296 225 297 225 18 226 297 226 298 226 299 189 300 189 90 189 298 189 301 189 18 189 18 227 301 227 302 227 18 228 302 228 267 228 303 189 304 189 44 189 305 189 47 189 306 189 306 189 47 189 307 189 300 189 308 189 90 189 90 229 308 229 309 229 90 230 309 230 310 230 263 189 311 189 90 189 90 231 311 231 312 231 90 232 312 232 313 232 293 189 314 189 253 189 253 233 314 233 315 233 253 234 315 234 294 234 303 189 44 189 316 189 294 189 18 189 253 189 253 235 18 235 266 235 253 236 266 236 282 236 282 237 266 237 317 237 282 238 317 238 318 238 318 189 319 189 282 189 282 239 319 239 320 239 282 240 320 240 280 240 321 189 322 189 90 189 90 241 322 241 323 241 90 189 323 189 262 189 305 189 324 189 47 189 47 242 324 242 325 242 47 243 325 243 278 243 278 244 325 244 326 244 278 189 326 189 327 189 304 189 328 189 44 189 44 245 328 245 329 245 44 246 329 246 330 246 279 189 331 189 47 189 47 247 331 247 332 247 47 189 332 189 48 189 48 248 332 248 333 248 48 189 333 189 50 189 50 249 333 249 334 249 313 189 335 189 90 189 90 250 335 250 336 250 90 189 336 189 1 189 1 251 336 251 337 251 1 252 337 252 338 252 338 253 339 253 1 253 1 254 339 254 340 254 1 255 340 255 341 255 341 189 342 189 1 189 1 256 342 256 343 256 1 257 343 257 2 257 2 258 343 258 344 258 2 259 344 259 4 259 4 189 344 189 6 189 14 260 12 260 283 260 283 261 12 261 10 261 283 189 10 189 344 189 344 262 10 262 8 262 344 263 8 263 6 263 40 189 38 189 345 189 345 263 38 263 36 263 345 264 36 264 242 264 242 265 36 265 34 265 242 266 34 266 32 266 246 267 346 267 347 267 347 189 348 189 246 189 246 268 348 268 349 268 246 269 349 269 350 269 350 270 351 270 246 270 246 271 351 271 352 271 246 272 352 272 30 272 30 273 352 273 353 273 30 274 353 274 354 274 354 189 355 189 30 189 30 275 355 275 356 275 30 276 356 276 357 276 66 277 64 277 261 277 261 278 64 278 62 278 261 189 62 189 358 189 358 279 62 279 60 279 358 189 60 189 359 189 359 280 60 280 58 280 359 189 58 189 360 189 360 281 58 281 56 281 360 189 56 189 361 189 361 282 56 282 54 282 361 189 54 189 334 189 334 283 54 283 52 283 334 284 52 284 50 284 90 189 88 189 299 189 299 285 88 285 86 285 299 189 86 189 362 189 362 284 86 284 84 284 362 189 84 189 363 189 363 286 84 286 82 286 363 189 82 189 364 189 364 287 82 287 80 287 364 288 80 288 365 288 365 289 80 289 78 289 365 189 78 189 256 189 256 290 78 290 76 290 256 291 76 291 74 291 321 292 90 292 366 292 366 189 90 189 310 189 366 189 310 189 367 189 367 293 310 293 368 293 367 294 368 294 369 294 316 189 44 189 345 189 345 295 44 295 42 295 345 296 42 296 40 296 370 189 371 189 47 189 47 297 371 297 372 297 47 298 372 298 307 298 373 189 374 189 246 189 246 189 374 189 375 189 246 299 375 299 346 299 357 189 376 189 30 189 30 300 376 300 377 300 30 189 377 189 242 189 281 301 378 301 282 301 282 189 378 189 379 189 282 189 379 189 380 189 380 302 379 302 367 302 380 189 367 189 381 189 381 189 367 189 369 189 246 189 382 189 373 189 373 303 382 303 383 303 373 304 383 304 326 304 326 305 383 305 384 305 326 306 384 306 327 306 330 189 385 189 44 189 44 307 385 307 386 307 44 189 386 189 47 189 47 308 386 308 387 308 47 309 387 309 370 309 259 310 108 310 258 310 258 311 108 311 109 311 258 312 109 312 257 312 257 312 109 312 106 312 257 313 106 313 256 313 256 314 106 314 105 314 256 315 105 315 365 315 365 315 105 315 104 315 365 316 104 316 364 316 364 316 104 316 166 316 364 317 166 317 363 317 363 317 166 317 165 317 363 318 165 318 362 318 362 319 165 319 149 319 362 320 149 320 299 320 299 320 149 320 148 320 299 321 148 321 300 321 300 322 148 322 147 322 300 323 147 323 308 323 308 324 147 324 139 324 308 325 139 325 309 325 309 326 139 326 138 326 309 327 138 327 310 327 310 328 138 328 137 328 310 329 137 329 368 329 368 330 137 330 126 330 368 331 126 331 369 331 369 332 126 332 125 332 369 333 125 333 381 333 381 334 125 334 124 334 381 335 124 335 380 335 380 336 124 336 118 336 380 337 118 337 282 337 282 338 118 338 117 338 282 339 117 339 253 339 253 340 117 340 226 340 253 341 226 341 251 341 251 341 226 341 227 341 251 342 227 342 246 342 246 343 227 343 99 343 246 344 99 344 382 344 382 345 99 345 102 345 382 346 102 346 383 346 383 347 102 347 103 347 383 348 103 348 384 348 384 349 103 349 113 349 384 350 113 350 327 350 327 351 113 351 112 351 327 352 112 352 278 352 278 353 112 353 95 353 278 354 95 354 279 354 279 355 95 355 94 355 279 356 94 356 331 356 331 357 94 357 167 357 331 358 167 358 332 358 332 359 167 359 168 359 332 360 168 360 333 360 333 361 168 361 175 361 333 362 175 362 334 362 334 362 175 362 200 362 334 363 200 363 361 363 361 364 200 364 172 364 361 365 172 365 360 365 360 365 172 365 171 365 360 366 171 366 359 366 359 366 171 366 170 366 359 367 170 367 358 367 358 367 170 367 93 367 358 368 93 368 261 368 261 369 93 369 92 369 261 370 92 370 260 370 260 370 92 370 107 370 260 371 107 371 259 371 259 372 107 372 108 372 252 373 142 373 254 373 254 311 142 311 96 311 254 374 96 374 255 374 255 312 96 312 101 312 255 313 101 313 291 313 291 314 101 314 100 314 291 315 100 315 292 315 292 315 100 315 98 315 292 316 98 316 293 316 293 375 98 375 97 375 293 317 97 317 314 317 314 376 97 376 115 376 314 318 115 318 315 318 315 319 115 319 114 319 315 320 114 320 294 320 294 320 114 320 111 320 294 377 111 377 295 377 295 322 111 322 110 322 295 378 110 378 296 378 296 324 110 324 208 324 296 325 208 325 297 325 297 326 208 326 206 326 297 327 206 327 298 327 298 328 206 328 219 328 298 329 219 329 301 329 301 330 219 330 197 330 301 331 197 331 302 331 302 332 197 332 196 332 302 333 196 333 267 333 267 334 196 334 195 334 267 379 195 379 268 379 268 336 195 336 194 336 268 337 194 337 269 337 269 380 194 380 193 380 269 339 193 339 270 339 270 340 193 340 189 340 270 341 189 341 271 341 271 341 189 341 188 341 271 342 188 342 272 342 272 343 188 343 187 343 272 381 187 381 273 381 273 345 187 345 186 345 273 346 186 346 274 346 274 382 186 382 179 382 274 348 179 348 275 348 275 349 179 349 178 349 275 350 178 350 286 350 286 351 178 351 217 351 286 352 217 352 287 352 287 353 217 353 216 353 287 354 216 354 276 354 276 355 216 355 215 355 276 356 215 356 277 356 277 357 215 357 214 357 277 358 214 358 288 358 288 383 214 383 213 383 288 360 213 360 289 360 289 384 213 384 233 384 289 362 233 362 290 362 290 362 233 362 232 362 290 363 232 363 244 363 244 364 232 364 231 364 244 385 231 385 245 385 245 365 231 365 161 365 245 386 161 386 247 386 247 366 161 366 160 366 247 367 160 367 248 367 248 367 160 367 158 367 248 368 158 368 249 368 249 369 158 369 157 369 249 370 157 370 250 370 250 387 157 387 120 387 250 371 120 371 252 371 252 388 120 388 142 388 150 389 242 389 151 389 151 390 242 390 377 390 151 391 377 391 152 391 152 392 377 392 376 392 152 393 376 393 140 393 140 393 376 393 357 393 140 394 357 394 141 394 141 395 357 395 356 395 141 396 356 396 143 396 143 397 356 397 355 397 143 398 355 398 144 398 144 399 355 399 354 399 144 400 354 400 153 400 153 401 354 401 353 401 153 402 353 402 154 402 154 402 353 402 352 402 154 403 352 403 155 403 155 403 352 403 351 403 155 404 351 404 169 404 169 405 351 405 350 405 169 406 350 406 183 406 183 406 350 406 349 406 183 407 349 407 184 407 184 408 349 408 348 408 184 409 348 409 185 409 185 409 348 409 347 409 185 410 347 410 173 410 173 411 347 411 346 411 173 412 346 412 174 412 174 413 346 413 375 413 174 414 375 414 176 414 176 415 375 415 374 415 176 416 374 416 177 416 177 416 374 416 373 416 177 417 373 417 123 417 123 417 373 417 326 417 123 418 326 418 156 418 156 418 326 418 325 418 156 419 325 419 130 419 130 419 325 419 324 419 130 420 324 420 131 420 131 420 324 420 305 420 131 421 305 421 132 421 132 422 305 422 306 422 132 423 306 423 133 423 133 424 306 424 307 424 133 425 307 425 162 425 162 426 307 426 372 426 162 427 372 427 163 427 163 427 372 427 371 427 163 428 371 428 164 428 164 429 371 429 370 429 164 430 370 430 221 430 221 431 370 431 387 431 221 432 387 432 222 432 222 433 387 433 386 433 222 434 386 434 223 434 223 435 386 435 385 435 223 436 385 436 159 436 159 437 385 437 330 437 159 438 330 438 122 438 122 439 330 439 329 439 122 440 329 440 121 440 121 441 329 441 328 441 121 442 328 442 119 442 119 443 328 443 304 443 119 444 304 444 127 444 127 445 304 445 303 445 127 446 303 446 128 446 128 446 303 446 316 446 128 447 316 447 129 447 129 448 316 448 345 448 129 449 345 449 150 449 150 450 345 450 242 450 218 389 283 389 220 389 220 390 283 390 344 390 220 451 344 451 210 451 210 452 344 452 343 452 210 453 343 453 211 453 211 453 343 453 342 453 211 454 342 454 212 454 212 455 342 455 341 455 212 456 341 456 234 456 234 457 341 457 340 457 234 458 340 458 235 458 235 459 340 459 339 459 235 460 339 460 236 460 236 461 339 461 338 461 236 462 338 462 237 462 237 463 338 463 337 463 237 464 337 464 238 464 238 465 337 465 336 465 238 466 336 466 239 466 239 467 336 467 335 467 239 468 335 468 181 468 181 468 335 468 313 468 181 407 313 407 182 407 182 408 313 408 312 408 182 409 312 409 198 409 198 409 312 409 311 409 198 469 311 469 199 469 199 470 311 470 263 470 199 471 263 471 136 471 136 472 263 472 262 472 136 473 262 473 135 473 135 474 262 474 323 474 135 475 323 475 134 475 134 475 323 475 322 475 134 417 322 417 116 417 116 417 322 417 321 417 116 418 321 418 224 418 224 418 321 418 366 418 224 476 366 476 225 476 225 476 366 476 367 476 225 477 367 477 180 477 180 477 367 477 379 477 180 478 379 478 145 478 145 479 379 479 378 479 145 480 378 480 146 480 146 481 378 481 281 481 146 482 281 482 190 482 190 483 281 483 280 483 190 484 280 484 191 484 191 484 280 484 320 484 191 428 320 428 192 428 192 429 320 429 319 429 192 430 319 430 201 430 201 431 319 431 318 431 201 432 318 432 202 432 202 433 318 433 317 433 202 434 317 434 203 434 203 435 317 435 266 435 203 436 266 436 204 436 204 437 266 437 265 437 204 438 265 438 228 438 228 439 265 439 264 439 228 485 264 485 229 485 229 486 264 486 241 486 229 487 241 487 230 487 230 488 241 488 240 488 230 444 240 444 209 444 209 445 240 445 243 445 209 446 243 446 207 446 207 446 243 446 285 446 207 447 285 447 205 447 205 448 285 448 284 448 205 449 284 449 218 449 218 450 284 450 283 450</p>
        </triangles>
      </mesh>
    </geometry>
  </library_geometries>
  <library_visual_scenes>
    <visual_scene id="Scene" name="Scene">
      <node id="camera_interface" name="camera_interface" type="NODE">
        <matrix sid="transform">9.99987e-4 0 0 0.1681713 0 9.99987e-4 0 0.01499981 0 0 9.99987e-4 0.007999999 0 0 0 1</matrix>
        <instance_geometry url="#camera_interface-mesh" name="camera_interface">
          <bind_material>
            <technique_common>
              <instance_material symbol="Material_001-material" target="#Material_001-material"/>
            </technique_common>
          </bind_material>
        </instance_geometry>
      </node>
    </visual_scene>
  </library_visual_scenes>
  <scene>
    <instance_visual_scene url="#Scene"/>
  </scene>
</COLLADA>