<?xml version="1.0" encoding="utf-8"?>
<COLLADA xmlns="http://www.collada.org/2005/11/COLLADASchema" version="1.4.1" xmlns:xsi="http://www.w3.org/2001/XMLSchema-instance">
  <asset>
    <contributor>
      <author>Blender User</author>
      <authoring_tool>Blender 3.6.0 commit date:2023-06-27, commit time:08:08, hash:c7fc78b81ecb</authoring_tool>
    </contributor>
    <created>2023-09-18T18:16:25</created>
    <modified>2023-09-18T18:16:25</modified>
    <unit name="meter" meter="1"/>
    <up_axis>Z_UP</up_axis>
  </asset>
  <library_effects>
    <effect id="Material_001-effect">
      <profile_COMMON>
        <technique sid="common">
          <lambert>
            <emission>
              <color sid="emission">0 0 0 1</color>
            </emission>
            <diffuse>
              <color sid="diffuse">0.01466943 0.01466943 0.01466943 1</color>
            </diffuse>
            <index_of_refraction>
              <float sid="ior">1.45</float>
            </index_of_refraction>
          </lambert>
        </technique>
      </profile_COMMON>
    </effect>
  </library_effects>
  <library_images/>
  <library_materials>
    <material id="Material_001-material" name="Material.001">
      <instance_effect url="#Material_001-effect"/>
    </material>
  </library_materials>
  <library_geometries>
    <geometry id="chin-mesh" name="chin">
      <mesh>
        <source id="chin-mesh-positions">
          <float_array id="chin-mesh-positions-array" count="1464">-48.0267 -10.72216 6.557378 -48.43215 -10.59799 6.557378 -54.41038 -14.62827 6.557378 49.30489 -10.00812 6.557378 48.98657 -10.28826 6.557378 54.41037 -14.62827 6.557378 48.62551 -10.51059 6.557378 48.23205 -10.66869 6.557378 47.81754 -10.75802 6.557378 47.39389 -10.77602 6.557378 46.9733 -10.72216 6.557378 15 -14.62827 6.557378 46.56785 -10.59799 6.557378 46.18923 -10.40709 6.557378 0.3810463 26.04743 6.557378 0.8784638 25.94023 6.557378 13 28.07173 6.557378 -47.18246 -5.798515 6.557378 -46.76795 -5.887848 6.557378 -15 -1.928268 6.557378 -46.3745 -6.045952 6.557378 -46.01342 -6.26828 6.557378 -47.60611 -5.780518 6.557378 -54.41038 -1.928268 6.557378 -48.0267 -5.834381 6.557378 -14.97538 -22.94114 6.557378 -14.90212 -23.2463 6.557378 -14.17558 -24.2463 6.557378 49.77806 -7.248512 6.557378 49.91933 -7.648323 6.557378 56.41037 -3.928268 6.557378 49.99098 -8.066254 6.557378 56.41037 -12.62827 6.557378 49.99098 -8.490288 6.557378 45.84831 -10.15495 6.557378 45.5549 -9.848816 6.557378 45.31745 -9.497506 6.557378 47.39389 -5.780518 6.557378 47.81754 -5.798515 6.557378 54.41037 -1.928268 6.557378 48.23205 -5.887848 6.557378 48.62551 -6.045952 6.557378 1.350605 0.392952 6.557378 0.8784638 0.2032318 6.557378 15 -1.928268 6.557378 -45.69511 -6.548416 6.557378 -45.42873 -6.878334 6.557378 -45.22193 -7.248512 6.557378 -45.08067 -7.648323 6.557378 -45.00901 -8.066254 6.557378 45 -8.278267 6.557378 45.03595 -7.855766 6.557378 -45.00901 -8.490288 6.557378 -15 -14.62827 6.557378 -45.08067 -8.908211 6.557378 -45.22193 -9.308022 6.557378 -45.42873 -9.678208 6.557378 -15 -22.62827 6.557378 -13.90799 -24.41028 6.557378 -13.61804 -24.53038 6.557378 -13.31287 -24.60365 6.557378 -13 -24.62827 6.557378 45.1428 -9.111123 6.557378 45.03595 -8.700776 6.557378 45.1428 -7.445419 6.557378 45.31745 -7.059029 6.557378 45.5549 -6.707718 6.557378 46.9733 -5.834381 6.557378 46.56785 -5.958549 6.557378 -0.6320419 20.13907 6.557378 -1.118576 20.28806 6.557378 -0.6320419 6.004402 6.557378 -1.572926 20.51714 6.557378 -1.982029 20.81972 6.557378 -2.334114 21.18707 6.557378 -2.619049 21.60864 6.557378 -45.69511 -10.00812 6.557378 -46.01342 -10.28826 6.557378 -46.3745 -10.51059 6.557378 -46.76795 -10.66869 6.557378 -47.18246 -10.75802 6.557378 -47.60611 -10.77602 6.557378 -56.41038 -3.928268 6.557378 -56.41038 -12.62827 6.557378 -50.00001 -8.278267 6.557378 -49.15169 -6.401588 6.557378 -48.81077 -6.149445 6.557378 -48.43215 -5.958549 6.557378 -14.78202 -23.53625 6.557378 -14.61804 -23.80384 6.557378 -14.41422 -24.04249 6.557378 13 -24.62827 6.557378 15 -22.62827 6.557378 13.31286 -24.60365 6.557378 13.61803 -24.53038 6.557378 13.90798 -24.41028 6.557378 14.17556 -24.2463 6.557378 14.97537 -22.94114 6.557378 14.41421 -24.04249 6.557378 14.61803 -23.80384 6.557378 55.82459 -14.04248 6.557378 56.02841 -13.80384 6.557378 49.57127 -9.678208 6.557378 56.19239 -13.53625 6.557378 54.72324 -14.60365 6.557378 55.02841 -14.53038 6.557378 45.84831 -6.401588 6.557378 46.18923 -6.149445 6.557378 55.82459 -2.514053 6.557378 55.58594 -2.310234 6.557378 49.57127 -6.878334 6.557378 55.31835 -2.146255 6.557378 48.98657 -6.26828 6.557378 49.30489 -6.548416 6.557378 54.72324 -1.952896 6.557378 55.02841 -2.026154 6.557378 2.989185 3.326149 6.557378 2.989185 2.817314 6.557378 -0.1273307 26.06903 6.557378 -13 28.07173 6.557378 -0.6320419 26.0044 6.557378 1.350605 25.75051 6.557378 1.783894 25.48372 6.557378 2.165863 25.14755 6.557378 14.78201 -23.53625 6.557378 14.90211 -23.2463 6.557378 49.91933 -8.908211 6.557378 49.77806 -9.308022 6.557378 56.38575 -12.94114 6.557378 56.31249 -13.24631 6.557378 56.31249 -3.310234 6.557378 56.19239 -3.020287 6.557378 56.02841 -2.752701 6.557378 0.3810463 0.09603118 6.557378 -0.1273307 0.07443237 6.557378 -0.6320419 0.1390686 6.557378 -1.118576 0.2880631 6.557378 -14.61804 27.2473 6.557378 -14.78202 26.97971 6.557378 -1.572926 5.62632 6.557378 2.485523 21.39181 6.557378 2.165863 20.99592 6.557378 0.8784638 20.20323 6.557378 1.350605 20.39295 6.557378 1.783894 20.65974 6.557378 1.350605 5.750511 6.557378 0.8784638 5.940231 6.557378 0.3810463 20.09602 6.557378 1.783894 5.483726 6.557378 2.165863 5.147545 6.557378 2.485523 4.751656 6.557378 -48.81077 -10.40709 6.557378 -49.15169 -10.15495 6.557378 -54.72325 -14.60365 6.557378 -49.44509 -9.848816 6.557378 -56.3125 -13.24631 6.557378 -49.68254 -9.497506 6.557378 -56.38576 -12.94114 6.557378 -49.8572 -9.111123 6.557378 -49.96405 -8.700776 6.557378 -49.96405 -7.855766 6.557378 -49.8572 -7.445419 6.557378 -56.38576 -3.615402 6.557378 -49.68254 -7.059029 6.557378 -55.8246 -2.514053 6.557378 -56.02841 -2.752701 6.557378 55.31835 -14.41028 6.557378 55.58594 -14.2463 6.557378 56.38575 -3.615402 6.557378 2.903194 2.315796 6.557378 2.733681 1.836021 6.557378 2.485523 1.391808 6.557378 2.165863 0.9959107 6.557378 1.783894 0.6597443 6.557378 -1.572926 0.5171433 6.557378 -1.982029 0.8197098 6.557378 -2.334114 1.187073 6.557378 -2.334114 24.95639 6.557378 -1.982029 25.32375 6.557378 2.989185 23.32615 6.557378 2.989185 22.81731 6.557378 15 26.07173 6.557378 2.903194 22.3158 6.557378 2.733681 21.83603 6.557378 -56.19239 -13.53625 6.557378 -56.02841 -13.80384 6.557378 -55.8246 -14.04248 6.557378 -56.19239 -3.020287 6.557378 -56.3125 -3.310234 6.557378 -2.619049 1.60865 6.557378 -2.828636 2.072311 6.557378 -2.956852 2.564728 6.557378 -1.118576 5.8554 6.557378 -1.572926 25.62632 6.557378 -1.118576 25.8554 6.557378 -0.1273307 20.07443 6.557378 -0.1273307 6.069031 6.557378 0.3810463 6.047432 6.557378 2.733681 4.307434 6.557378 2.903194 3.827667 6.557378 -55.58595 -14.2463 6.557378 -55.31836 -14.41028 6.557378 -55.02842 -14.53038 6.557378 -49.44509 -6.707718 6.557378 -55.02842 -2.026154 6.557378 -55.31836 -2.146255 6.557378 -55.58595 -2.310234 6.557378 -54.72325 -1.952896 6.557378 -3.000004 3.071732 6.557378 -2.956852 3.578735 6.557378 -15 26.07173 6.557378 -2.828636 4.071152 6.557378 -2.619049 4.534821 6.557378 -2.828636 22.07232 6.557378 -2.956852 22.56474 6.557378 -3.000004 23.07173 6.557378 -2.956852 23.57874 6.557378 14.61803 27.2473 6.557378 14.41421 27.48595 6.557378 2.903194 23.82767 6.557378 2.485523 24.75166 6.557378 2.733681 24.30743 6.557378 13.31286 28.0471 6.557378 13.61803 27.97385 6.557378 -2.828636 24.07115 6.557378 -2.619049 24.53481 6.557378 14.97537 26.3846 6.557378 14.90211 26.68977 6.557378 14.78201 26.97971 6.557378 -2.334114 4.956398 6.557378 -1.982029 5.323746 6.557378 -14.97538 26.3846 6.557378 -14.90212 26.68977 6.557378 -13.31287 28.0471 6.557378 -13.61804 27.97385 6.557378 -13.90799 27.85375 6.557378 14.17556 27.68977 6.557378 13.90798 27.85375 6.557378 -14.17558 27.68977 6.557378 -14.41422 27.48595 6.557378 36.41037 -14.62827 -12.44262 45 -8.278267 -12.44262 45.03595 -8.700776 -12.44262 46.18923 -10.40709 -12.44262 45.84831 -10.15495 -12.44262 45.5549 -9.848816 -12.44262 45.1428 -9.111123 -12.44262 45.31745 -9.497506 -12.44262 48.62551 -10.51059 -12.44262 54.41037 -14.62827 -12.44262 48.23205 -10.66869 -12.44262 47.81754 -10.75802 -12.44262 54.41037 -1.928268 -12.44262 48.98657 -6.26828 -12.44262 48.62551 -6.045952 -12.44262 48.23205 -5.887848 -12.44262 47.81754 -5.798515 -12.44262 43 -1.928268 -12.44262 47.39389 -5.780518 -12.44262 46.9733 -5.834381 -12.44262 46.56785 -5.958549 -12.44262 46.18923 -6.149445 -12.44262 45.84831 -6.401588 -12.44262 45.1428 -7.445419 -12.44262 45.03595 -7.855766 -12.44262 46.56785 -10.59799 -12.44262 46.9733 -10.72216 -12.44262 47.39389 -10.77602 -12.44262 45.5549 -6.707718 -12.44262 45.31745 -7.059029 -12.44262 48.98657 -10.28826 -12.44262 49.30489 -10.00812 -12.44262 54.72324 -14.60365 -12.44262 49.57127 -9.678208 -12.44262 55.82459 -14.04248 -12.44262 55.58594 -14.2463 -12.44262 54.72324 -1.952896 -12.44262 49.57127 -6.878334 -12.44262 49.30489 -6.548416 -12.44262 55.02841 -2.026154 -12.44262 55.31835 -2.146255 -12.44262 55.58594 -2.310234 -12.44262 55.31835 -14.41028 -12.44262 55.02841 -14.53038 -12.44262 56.31249 -13.24631 -12.44262 56.19239 -13.53625 -12.44262 56.02841 -13.80384 -12.44262 49.77806 -9.308022 -12.44262 49.91933 -8.908211 -12.44262 56.41037 -12.62827 -12.44262 49.99098 -8.490288 -12.44262 56.41037 -3.928268 -12.44262 49.99098 -8.066254 -12.44262 56.38575 -12.94114 -12.44262 55.82459 -2.514053 -12.44262 56.02841 -2.752701 -12.44262 56.19239 -3.020287 -12.44262 49.91933 -7.648323 -12.44262 49.77806 -7.248512 -12.44262 56.38575 -3.615402 -12.44262 56.31249 -3.310234 -12.44262 -15 26.07173 -0.4426222 -15 -1.928268 -0.4426222 -43.00001 -1.928268 -12.44262 -54.41038 -1.928268 -12.44262 -43.00001 -1.928268 -0.4426222 -56.41038 -12.62827 -12.44262 -56.41038 -3.928268 -12.44262 -15 -14.62827 -0.4426222 -36.41038 -14.62827 -0.4426222 -36.41038 -14.62827 -12.44262 -54.41038 -14.62827 -12.44262 -15 -22.62827 -0.4426222 13 -24.62827 -0.4426222 -13 -24.62827 -0.4426222 15 -22.62827 -0.4426222 15 -14.62827 -0.4426222 36.41037 -14.62827 -0.4426222 15 -1.928268 -0.4426222 43 -1.928268 -0.4426222 15 26.07173 -0.4426222 -13 28.07173 -0.4426222 13 28.07173 -0.4426222 -48.81077 -10.40709 -12.44262 -48.43215 -10.59799 -12.44262 -46.76795 -10.66869 -12.44262 -46.3745 -10.51059 -12.44262 -46.3745 -6.045952 -12.44262 -46.76795 -5.887848 -12.44262 -48.0267 -10.72216 -12.44262 -47.60611 -10.77602 -12.44262 -47.18246 -10.75802 -12.44262 -56.3125 -3.310234 -12.44262 -49.68254 -7.059029 -12.44262 -56.38576 -3.615402 -12.44262 -49.8572 -7.445419 -12.44262 -49.96405 -7.855766 -12.44262 -50.00001 -8.278267 -12.44262 -55.8246 -14.04248 -12.44262 -56.02841 -13.80384 -12.44262 -49.68254 -9.497506 -12.44262 -56.19239 -13.53625 -12.44262 -54.72325 -14.60365 -12.44262 -49.44509 -9.848816 -12.44262 -49.15169 -10.15495 -12.44262 -47.18246 -5.798515 -12.44262 -47.60611 -5.780518 -12.44262 -48.0267 -5.834381 -12.44262 -48.43215 -5.958549 -12.44262 -49.96405 -8.700776 -12.44262 -49.8572 -9.111123 -12.44262 -56.38576 -12.94114 -12.44262 -56.3125 -13.24631 -12.44262 -55.02842 -14.53038 -12.44262 -55.31836 -14.41028 -12.44262 -55.58595 -14.2463 -12.44262 -46.01342 -10.28826 -12.44262 -45.69511 -10.00812 -12.44262 -45.42873 -9.678208 -12.44262 -45.42873 -6.878334 -12.44262 -45.69511 -6.548416 -12.44262 -46.01342 -6.26828 -12.44262 -48.81077 -6.149445 -12.44262 -49.15169 -6.401588 -12.44262 -54.72325 -1.952896 -12.44262 -49.44509 -6.707718 -12.44262 -45.22193 -9.308022 -12.44262 -45.08067 -8.908211 -12.44262 -45.00901 -8.490288 -12.44262 -56.19239 -3.020287 -12.44262 -56.02841 -2.752701 -12.44262 -55.8246 -2.514053 -12.44262 -45.00901 -8.066254 -12.44262 -45.08067 -7.648323 -12.44262 -45.22193 -7.248512 -12.44262 -55.58595 -2.310234 -12.44262 -55.31836 -2.146255 -12.44262 -55.02842 -2.026154 -12.44262 -3.000004 3.071732 -0.4426222 -1.982029 5.323746 -0.4426222 -2.334114 4.956398 -0.4426222 -0.1273307 0.07443237 -0.4426222 0.3810463 0.09603118 -0.4426222 -3.000004 23.07173 -0.4426222 -2.956852 22.56474 -0.4426222 -1.572926 5.62632 -0.4426222 -2.956852 2.564728 -0.4426222 -2.828636 2.072311 -0.4426222 -2.619049 1.60865 -0.4426222 14.97537 -22.94114 -0.4426222 14.90211 -23.2463 -0.4426222 14.17556 -24.2463 -0.4426222 -1.118576 5.8554 -0.4426222 -0.6320419 6.004402 -0.4426222 -2.828636 22.07232 -0.4426222 -2.619049 21.60864 -0.4426222 -2.334114 21.18707 -0.4426222 -1.982029 20.81972 -0.4426222 -1.572926 20.51714 -0.4426222 -1.982029 25.32375 -0.4426222 -1.572926 25.62632 -0.4426222 -1.118576 25.8554 -0.4426222 -2.619049 4.534821 -0.4426222 -2.828636 4.071152 -0.4426222 -2.956852 3.578735 -0.4426222 -13.31287 -24.60365 -0.4426222 -1.118576 0.2880631 -0.4426222 -0.6320419 0.1390686 -0.4426222 -13.61804 -24.53038 -0.4426222 -13.90799 -24.41028 -0.4426222 -14.17558 -24.2463 -0.4426222 13.90798 -24.41028 -0.4426222 13.61803 -24.53038 -0.4426222 13.31286 -24.60365 -0.4426222 0.8784638 0.2032318 -0.4426222 -1.118576 20.28806 -0.4426222 -0.6320419 20.13907 -0.4426222 -0.1273307 20.07443 -0.4426222 -14.41422 -24.04249 -0.4426222 -14.61804 -23.80384 -0.4426222 -14.78202 -23.53625 -0.4426222 -2.334114 1.187073 -0.4426222 -1.982029 0.8197098 -0.4426222 -1.572926 0.5171433 -0.4426222 -14.97538 -22.94114 -0.4426222 -14.90212 -23.2463 -0.4426222 14.78201 -23.53625 -0.4426222 14.61803 -23.80384 -0.4426222 14.41421 -24.04249 -0.4426222 0.8784638 25.94023 -0.4426222 0.3810463 26.04743 -0.4426222 -0.1273307 26.06903 -0.4426222 -0.6320419 26.0044 -0.4426222 -2.334114 24.95639 -0.4426222 -2.619049 24.53481 -0.4426222 -13.31287 28.0471 -0.4426222 -2.828636 24.07115 -0.4426222 1.783894 20.65974 -0.4426222 2.165863 20.99592 -0.4426222 2.165863 25.14755 -0.4426222 1.783894 25.48372 -0.4426222 1.350605 25.75051 -0.4426222 -2.956852 23.57874 -0.4426222 -14.97538 26.3846 -0.4426222 -14.90212 26.68977 -0.4426222 -14.41422 27.48595 -0.4426222 -14.17558 27.68977 -0.4426222 -13.90799 27.85375 -0.4426222 -13.61804 27.97385 -0.4426222 1.350605 0.392952 -0.4426222 1.783894 0.6597443 -0.4426222 2.165863 0.9959107 -0.4426222 2.485523 1.391808 -0.4426222 2.733681 1.836021 -0.4426222 2.903194 2.315796 -0.4426222 2.903194 22.3158 -0.4426222 2.733681 21.83603 -0.4426222 2.485523 21.39181 -0.4426222 -14.78202 26.97971 -0.4426222 -14.61804 27.2473 -0.4426222 2.733681 4.307434 -0.4426222 2.485523 4.751656 -0.4426222 0.8784638 20.20323 -0.4426222 2.165863 5.147545 -0.4426222 1.783894 5.483726 -0.4426222 1.350605 5.750511 -0.4426222 0.8784638 5.940231 -0.4426222 0.3810463 20.09602 -0.4426222 0.3810463 6.047432 -0.4426222 -0.1273307 6.069031 -0.4426222 2.989185 2.817314 -0.4426222 2.989185 3.326149 -0.4426222 2.903194 3.827667 -0.4426222 14.90211 26.68977 -0.4426222 2.989185 23.32615 -0.4426222 14.78201 26.97971 -0.4426222 2.903194 23.82767 -0.4426222 14.61803 27.2473 -0.4426222 2.989185 22.81731 -0.4426222 14.97537 26.3846 -0.4426222 2.733681 24.30743 -0.4426222 2.485523 24.75166 -0.4426222 1.350605 20.39295 -0.4426222 13.31286 28.0471 -0.4426222 13.61803 27.97385 -0.4426222 13.90798 27.85375 -0.4426222 14.17556 27.68977 -0.4426222 14.41421 27.48595 -0.4426222</float_array>
          <technique_common>
            <accessor source="#chin-mesh-positions-array" count="488" stride="3">
              <param name="X" type="float"/>
              <param name="Y" type="float"/>
              <param name="Z" type="float"/>
            </accessor>
          </technique_common>
        </source>
        <source id="chin-mesh-normals">
          <float_array id="chin-mesh-normals-array" count="1845">1.60527e-6 0 1 -1.31499e-6 0 1 0 0 1 0 0 1 5.97889e-7 0 1 -2.16955e-6 0 1 -3.83827e-7 0 1 4.93686e-7 0 1 0 0 1 0 0 1 0 0 1 -1.71923e-6 0 1 1.92009e-6 0 1 6.42376e-6 0 1 -1.22238e-6 0 1 4.8014e-7 0 1 0 0 1 0 0 1 -2.16954e-6 0 1 5.97889e-7 0 1 2.82181e-7 0 1 -3.78838e-7 0 1 2.51905e-7 0 1 0 0 1 0 0 1 0 0 1 0 0 1 -2.22915e-7 0 1 0 0 1 -8.74569e-6 0 1 -1.54599e-6 0 1 1.65427e-6 0 1 0 0 1 0 0 1 0 0 1 0 0 1 3.07075e-6 0 1 4.11175e-7 0 1 8.08143e-7 0 1 -1.98212e-6 0 1 -2.13092e-7 0 1 0 0 1 2.92754e-7 0 1 -1.47084e-6 0 1 -2.40017e-7 0 1 5.36336e-7 0 1 -4.51481e-7 0 1 2.38418e-7 0 1 -1.65428e-6 0 1 8.74585e-6 0 1 -9.91608e-7 0 1 -1.44737e-6 0 1 2.02851e-6 0 1 0 0 1 1.89419e-7 0 1 1.64705e-6 0 1 2.15897e-7 0 1 -1.06845e-6 0 1 -3.16649e-7 0 1 -2.31828e-7 0 1 -2.00395e-7 0 1 5.26537e-6 0 1 -6.42367e-6 0 1 -9.16789e-7 0 1 1.49134e-7 0 1 1.60071e-6 0 1 -9.91611e-7 0 1 -2.00195e-7 0 1 -7.09126e-7 0 1 1.5112e-7 0 1 4.54625e-7 0 1 -4.33727e-6 0 1 4.22699e-7 0 1 0 0 1 -1.56265e-6 0 1 -2.06228e-6 0 1 1.21896e-6 0 1 -1.67255e-7 0 1 -1.58372e-7 0 1 -4.48229e-7 0 1 1.78519e-6 0 1 -3.11163e-7 0 1 -1.66443e-7 0 1 -3.11162e-7 0 1 1.78519e-6 0 1 -7.47037e-7 0 1 -1.84974e-6 0 1 2.15897e-7 0 1 1.02941e-6 0 1 4.31066e-7 0 1 -4.11311e-7 0 1 0 0 1 0 0 1 6.3412e-7 0 1 -1.75587e-7 0 1 -2.0521e-7 0 1 0 0 1 -1.65861e-7 0 1 -1.66038e-7 0 1 1.1063e-6 0 1 -9.24571e-7 0 1 -1.60783e-6 0 1 9.91671e-7 0 1 -1.99339e-7 0 1 6.02935e-7 0 1 4.15019e-7 0 1 0 0 1 5.13018e-7 0 1 5.02258e-7 0 1 -3.19698e-7 0 1 5.02184e-7 0 1 9.78137e-7 0 1 -2.14308e-6 0 1 -1.33531e-7 0 1 1.56944e-6 0 1 1.32126e-6 0 1 -3.03555e-5 0 1 -1.63265e-6 0 1 1.49094e-6 0 1 0 0 1 1.49094e-6 0 1 -1.02041e-6 0 1 -3.31622e-7 0 1 -4.8652e-7 0 1 0 0 1 -4.86888e-7 0 1 -1.39501e-7 0 1 -4.38573e-6 0 1 0 0 1 1.96463e-7 0 1 -7.21691e-7 0 1 7.30234e-7 0 1 1.73563e-7 0 1 -2.66661e-6 0 1 4.17585e-7 0 1 6.90883e-7 0 1 0 0 1 0 0 1 -2.45674e-7 0 1 -3.74209e-7 0 1 3.87098e-7 0 1 -2.68731e-6 0 1 1.0257e-6 0 1 -1.27308e-6 0 1 0 0 1 4.66235e-7 0 1 1.18499e-6 0 1 -1.15822e-6 0 1 0 0 1 6.69545e-7 0 1 1.58524e-6 0 1 0 0 -1 1.95387e-6 0 -1 3.65671e-6 0 -1 -6.59578e-7 0 -1 2.19364e-7 0 -1 -3.43926e-7 0 -1 1.08707e-6 0 -1 -3.47357e-6 0 -1 7.06189e-7 0 -1 3.67312e-6 0 -1 -2.37657e-6 0 -1 1.91311e-6 0 -1 3.04814e-6 0 -1 -2.52384e-6 0 -1 -2.20182e-6 0 -1 1.72929e-6 0 -1 3.83827e-7 0 -1 -3.06788e-6 0 -1 4.69225e-7 0 -1 3.19392e-6 0 -1 8.21872e-7 0 -1 -4.85578e-6 0 -1 1.89992e-6 0 -1 -1.02941e-6 0 -1 -9.81447e-7 0 -1 9.86259e-7 0 -1 -1.96535e-6 0 -1 1.51128e-6 0 -1 -5.94965e-7 0 -1 1.4014e-6 0 -1 -2.44477e-6 0 -1 -3.20098e-7 0 -1 1.36608e-7 0 -1 -4.31069e-7 0 -1 4.11309e-7 0 -1 1.80175e-6 0 -1 -5.94967e-7 0 -1 -1.52798e-6 0 -1 -1 0 0 0 1 0 0 -1 0 0 -1 4.42488e-7 1 0 0 0 -1 8.14494e-7 -2.86041e-6 0 -1 3.21054e-6 0 -1 2.40017e-7 0 -1 -2.94205e-6 0 -1 9.28938e-7 0 -1 3.32015e-6 0 -1 -5.9763e-7 0 -1 3.11162e-7 0 -1 -1.36037e-7 0 -1 2.61592e-6 0 -1 5.95003e-7 0 -1 -1.14219e-6 0 -1 1.50529e-6 0 -1 -3.1455e-6 0 -1 6.60029e-7 0 -1 2.10691e-6 0 -1 -2.66309e-6 0 -1 3.11163e-7 0 -1 1.4941e-6 0 -1 1.99862e-6 0 -1 -1.49094e-6 0 -1 1.02041e-6 0 -1 5.8555e-7 0 -1 -4.44206e-7 0 -1 1.28549e-6 0 -1 -4.26313e-7 0 -1 -2.86046e-6 0 -1 1.50529e-6 0 -1 1.42534e-6 0 -1 6.69327e-7 0 -1 -2.36442e-7 0 -1 5.95003e-7 0 -1 -1.79401e-6 0 -1 1.83201e-6 0 -1 -2.37982e-7 0 -1 1.74466e-6 0 -1 -1.49094e-6 0 -1 -3.69755e-6 0 -1 0.9963964 -0.08481919 0 0.996399 -0.08478909 0 0.9677307 -0.2519869 0 0.9677343 -0.2519727 0 0.9112309 -0.411896 0 0.9112252 -0.4119085 0 0.8285151 -0.5599667 0 0.8285011 -0.5599875 0 0.7219586 -0.6919363 0 0.721951 -0.6919442 0 0.5946381 -0.8039935 0 0.4501922 -0.8929318 0 0.4501983 -0.8929287 0 0.2928264 -0.9561656 0 0.1270291 -0.9918991 0 -0.04244446 -0.9990988 0 -0.04244381 -0.9990988 0 -0.2106755 -0.9775561 0 -0.2106755 -0.9775561 0 -0.3728605 -0.9278875 0 -0.5243275 -0.8515167 0 -0.5243141 -0.8515251 0 -0.6606613 -0.7506842 0 -0.6606537 -0.7506908 0 -0.7780513 -0.6282009 0 -0.7780438 -0.6282101 0 -0.8730081 -0.4877057 0 -0.8730017 -0.4877173 0 -0.942883 -0.3331241 0 -0.9428783 -0.3331375 0 -0.9856159 -0.1690015 0 -0.9856158 -0.1690015 0 -0.9856153 0.1690044 0 -0.9428783 0.3331375 0 -0.942883 0.3331241 0 -0.873006 0.4877097 0 -0.8730124 0.487698 0 -0.7780367 0.6282188 0 -0.7780442 0.6282097 0 -0.6606639 0.7506819 0 -0.6606714 0.7506753 0 -0.5243141 0.8515251 0 -0.5243275 0.8515167 0 -0.372845 0.9278937 0 -0.2106755 0.9775561 0 -0.2106755 0.9775561 0 -0.04244381 0.9990988 0 -0.04244446 0.9990988 0 0.1270114 0.9919013 0 0.2928264 0.9561656 0 0.4502126 0.8929214 0 0.4502065 0.8929244 0 0.5946381 0.8039935 0 0.721951 0.6919442 0 0.7219586 0.6919363 0 0.8285011 0.5599875 0 0.8285151 0.5599667 0 0.9112222 0.4119153 0 0.9112278 0.4119027 0 0.9677343 0.2519727 0 0.9677307 0.2519869 0 0.9963991 0.08478754 0 0.9963966 0.08481764 0 0.9963977 -0.08480411 0 0.9112367 -0.4118835 0 0.9112309 -0.411896 0 0.8285081 -0.5599771 0 0.5946308 -0.803999 0 0.2928221 -0.956167 0 0.127031 -0.9918988 0 -0.3728553 -0.9278895 0 -0.5243208 -0.8515209 0 -0.8730146 -0.4876942 0 -0.8730146 -0.4876942 0 -0.9428735 -0.333151 0 -0.9856184 -0.1689867 0 -0.9856184 -0.1689868 0 -0.9856178 0.1689898 0 -0.9428735 0.333151 0 -0.8730189 0.4876865 0 -0.8730189 0.4876865 0 -0.5243208 0.8515209 0 -0.3728398 0.9278957 0 0.1270133 0.9919011 0 0.2928221 0.956167 0 0.5946308 0.803999 0 0.8285081 0.5599771 0 0.9112279 0.4119028 0 0.9112336 0.4118902 0 0.9963977 0.08480262 0 -0.8876278 0.4605615 0 -0.8876278 0.4605615 0 0.8876274 0.4605624 0 0.8876277 0.4605618 0 0 0 -1 0 0 -1 -1.53485e-7 0 -1 0 0 -1 0 0 -1 4.01475e-7 0 -1 1.54251e-7 0 -1 0 0 -1 -5.17759e-7 0 -1 0 0 -1 2.64283e-7 0 -1 0 0 -1 0 0 -1 0 0 -1 0 0 -1 0 0 -1 0 0 -1 0 0 -1 0 0 -1 0 0 -1 -5.46615e-7 0 -1 0 0 -1 0 0 -1 0 0 -1 0 0 -1 0 0 -1 0 0 -1 0 0 -1 0 0 -1 0 0 -1 -3.99795e-7 0 -1 0 0 -1 -6.50094e-7 0 -1 0 0 -1 0 0 -1 0 0 -1 0 0 -1 0 0 -1 0 0 -1 0 0 -1 0 0 -1 0 0 -1 0 0 -1 0 0 -1 0 0 -1 0 0 -1 0 0 -1 0 0 -1 0 0 -1 0 0 -1 0 0 -1 -1.53709e-7 0 -1 0 0 -1 0 0 -1 0 0 -1 0 0 -1 0 0 -1 0 0 -1 1.34421e-7 0 -1 0 0 -1 0 0 -1 0 0 -1 0 0 -1 -1.46359e-7 0 -1 0 0 -1 0 0 -1 0 0 -1 0 0 -1 0 0 -1 0 0 -1 0 0 -1 0 0 -1 0 0 -1 0 0 -1 0 0 -1 0.9963976 -0.08480489 0 0.9963976 -0.08480489 0 0.9677327 -0.2519791 0 0.9112318 -0.411894 0 0.9112318 -0.411894 0 0.8285112 -0.5599727 0 0.7219455 -0.69195 0 0.5946369 -0.8039945 0 0.4502069 -0.8929244 0 0.2928276 -0.9561653 0 0.1270136 -0.991901 0 -0.0424475 -0.9990988 0 -0.0424475 -0.9990988 0 -0.2106773 -0.9775557 0 -0.2106773 -0.9775557 0 -0.3728534 -0.9278904 0 -0.5243049 -0.8515306 0 -0.6606816 -0.7506663 0 -0.6606817 -0.7506663 0 -0.778034 -0.6282223 0 -0.7780339 -0.6282223 0 -0.8730138 -0.4876958 0 -0.8730137 -0.4876957 0 -0.9428767 -0.3331421 0 -0.9428768 -0.3331421 0 -0.985617 -0.168995 0 -0.9856169 -0.168995 0 -0.985617 0.168995 0 -0.9856169 0.168995 0 -0.9428784 0.3331373 0 -0.9428783 0.3331373 0 -0.8730102 0.4877021 0 -0.8730102 0.487702 0 -0.7780399 0.628215 0 -0.7780398 0.628215 0 -0.6606647 0.7506811 0 -0.5243157 0.8515239 0 -0.5243158 0.8515239 0 -0.3728534 0.9278904 0 -0.2106773 0.9775557 0 -0.2106773 0.9775557 0 -0.0424475 0.9990988 0 -0.0424475 0.9990988 0 0.1270283 0.9918992 0 0.2928139 0.9561696 0 0.4502069 0.8929244 0 0.5946272 0.8040017 0 0.7219599 0.691935 0 0.7219598 0.691935 0 0.8285112 0.5599727 0 0.9112293 0.4118997 0 0.9112293 0.4118996 0 0.9677327 0.2519791 0 0.9963976 0.08480489 0 0.9963976 0.08480489 0 0.9112293 -0.4118997 0 0.9112293 -0.4118996 0 0.7219527 -0.6919425 0 0.7219526 -0.6919425 0 0.2928139 -0.9561696 0 0.1270283 -0.9918992 0 -0.5243157 -0.8515239 0 -0.5243158 -0.8515239 0 -0.6606647 -0.7506811 0 -0.7780399 -0.628215 0 -0.7780398 -0.628215 0 -0.9856166 0.1689975 0 -0.9856166 0.1689975 0 -0.8730138 0.4876958 0 -0.8730137 0.4876957 0 -0.778034 0.6282223 0 -0.7780339 0.6282223 0 -0.6606816 0.7506663 0 -0.6606817 0.7506663 0 -0.5243049 0.8515306 0 -0.2106916 0.9775526 0 -0.04243254 0.9990993 0 0.5946369 0.8039945 0 0.7219527 0.6919425 0 0.7219526 0.6919425 0 0.8285065 0.5599796 0 0.9112343 0.4118884 0 0.9112344 0.4118884 0 0.9963976 0.08480614 0 0.9963975 0.08480614 0 0.9969162 -0.07847356 0 0.9969162 -0.07847356 0 0.9723766 -0.2334179 0 0.9723734 -0.233431 0 0.9238801 -0.3826822 0 0.9238752 -0.3826941 0 0.8526391 -0.5225003 0 0.8526392 -0.5225003 0 0.760412 -0.649441 0 0.649432 -0.7604198 0 0.649432 -0.7604198 0 0.5225132 -0.8526313 0 0.3826778 -0.9238819 0 0.2334466 -0.9723697 0 0.07846152 -0.9969173 0 0.07846152 -0.9969173 0 -0.9969168 -0.07846671 0 -0.9969173 -0.07845979 0 -0.9723718 -0.2334375 0 -0.9723734 -0.233431 0 -0.9238801 -0.3826822 0 -0.9238825 -0.3826763 0 -0.852633 -0.5225104 0 -0.8526298 -0.5225154 0 -0.7604155 -0.649437 0 -0.6494355 -0.7604168 0 -0.6494388 -0.7604139 0 -0.522507 -0.852635 0 -0.5225039 -0.852637 0 -0.3826778 -0.9238819 0 -0.2334513 -0.9723685 0 -0.2334498 -0.9723689 0 -0.07846039 -0.9969173 0 -0.07846099 -0.9969173 0 -0.07847303 0.9969163 0 -0.07847249 0.9969163 0 -0.2334268 0.9723744 0 -0.2334284 0.9723741 0 -0.3826882 0.9238777 0 -0.5224951 0.8526424 0 -0.5224981 0.8526405 0 -0.6494459 0.7604079 0 -0.6494424 0.7604109 0 -0.7604155 0.649437 0 -0.8526299 0.5225154 0 -0.8526329 0.5225104 0 -0.9238825 0.3826763 0 -0.9238801 0.3826822 0 -0.9723734 0.233431 0 -0.9723718 0.2334375 0 -0.9969174 0.07845979 0 -0.9969168 0.07846671 0 0.07847356 0.9969162 0 0.07847356 0.9969162 0 0.2334236 0.9723752 0 0.3826882 0.9238777 0 0.5225043 0.8526368 0 0.649439 0.7604138 0 0.649439 0.7604138 0 0.760412 0.649441 0 0.8526391 0.5225003 0 0.8526392 0.5225003 0 0.9238752 0.3826941 0 0.9238801 0.3826822 0 0.9723734 0.233431 0 0.9723766 0.2334179 0 0.9969162 0.07847356 0 0.9969162 0.07847356 0 0.9969183 -0.07844817 0 0.9723675 -0.2334559 0 0.9238749 -0.3826947 0 0.9238893 -0.3826597 0 0.8526279 -0.5225186 0 0.8526462 -0.5224888 0 0.7604041 -0.6494503 0 0.6494289 -0.7604224 0 0.6494491 -0.7604051 0 0.5224954 -0.8526422 0 0.3827008 -0.9238723 0 0.3826863 -0.9238783 0 0.2334419 -0.9723708 0 0.2334512 -0.9723685 0 0.07844781 -0.9969183 0 0.07845103 -0.9969181 0 0.9969183 0.07844817 0 0.9723675 0.2334559 0 0.9238749 0.3826947 0 0.9238893 0.3826597 0 0.8526279 0.5225186 0 0.8526462 0.5224888 0 0.7604143 0.6494383 0 0.6494289 0.7604224 0 0.6494491 0.7604051 0 0.5224954 0.8526422 0 0.3827008 0.9238723 0 0.3826863 0.9238783 0 0.2334189 0.9723763 0 0.2334282 0.9723742 0 0.07847195 0.9969163 0 0.07847517 0.9969161 0 -0.9969183 -0.07844817 0 -0.9723675 -0.2334559 0 -0.9238893 -0.3826597 0 -0.9238749 -0.3826947 0 -0.8526279 -0.5225186 0 -0.8526462 -0.5224888 0 -0.7604041 -0.6494503 0 -0.6494491 -0.7604051 0 -0.6494289 -0.7604224 0 -0.5224954 -0.8526422 0 -0.5225136 -0.852631 0 -0.3826863 -0.9238783 0 -0.2334512 -0.9723685 0 -0.07844781 -0.9969183 0 -0.9969183 0.07844817 0 -0.9723675 0.2334559 0 -0.9238893 0.3826597 0 -0.9238749 0.3826947 0 -0.8526279 0.5225186 0 -0.8526462 0.5224888 0 -0.7604143 0.6494383 0 -0.6494491 0.7604051 0 -0.6494289 0.7604224 0 -0.5224954 0.8526422 0 -0.5225136 0.852631 0 -0.3826863 0.9238783 0 -0.2334282 0.9723742 0 -0.07847195 0.9969163 0</float_array>
          <technique_common>
            <accessor source="#chin-mesh-normals-array" count="615" stride="3">
              <param name="X" type="float"/>
              <param name="Y" type="float"/>
              <param name="Z" type="float"/>
            </accessor>
          </technique_common>
        </source>
        <vertices id="chin-mesh-vertices">
          <input semantic="POSITION" source="#chin-mesh-positions"/>
        </vertices>
        <triangles material="Material_001-material" count="988">
          <input semantic="VERTEX" source="#chin-mesh-vertices" offset="0"/>
          <input semantic="NORMAL" source="#chin-mesh-normals" offset="1"/>
          <p>0 0 1 0 2 0 3 1 4 1 5 1 4 2 6 2 5 2 5 3 6 3 7 3 5 4 7 4 8 4 8 5 9 5 5 5 5 6 9 6 10 6 5 2 10 2 11 2 11 7 10 7 12 7 11 8 12 8 13 8 14 2 15 2 16 2 17 2 18 2 19 2 19 9 18 9 20 9 19 10 20 10 21 10 17 11 19 11 22 11 22 2 19 2 23 2 22 12 23 12 24 12 25 13 26 13 27 13 28 14 29 14 30 14 30 15 29 15 31 15 30 2 31 2 32 2 32 2 31 2 33 2 13 2 34 2 11 2 11 16 34 16 35 16 11 17 35 17 36 17 37 18 38 18 39 18 39 19 38 19 40 19 39 20 40 20 41 20 42 2 43 2 44 2 21 21 45 21 19 21 19 22 45 22 46 22 19 23 46 23 47 23 47 2 48 2 19 2 19 24 48 24 49 24 19 2 49 2 44 2 44 25 49 25 50 25 44 26 50 26 51 26 52 2 53 2 49 2 49 2 53 2 11 2 49 2 11 2 50 2 52 2 54 2 53 2 53 27 54 27 55 27 53 28 55 28 56 28 25 29 27 29 57 29 57 2 27 2 58 2 57 30 58 30 59 30 59 2 60 2 57 2 57 31 60 31 61 31 57 2 61 2 53 2 36 2 62 2 11 2 11 32 62 32 63 32 11 33 63 33 50 33 51 2 64 2 44 2 44 34 64 34 65 34 44 35 65 35 66 35 37 36 39 36 67 36 67 2 39 2 44 2 67 2 44 2 68 2 69 2 70 2 71 2 71 37 70 37 72 37 72 2 73 2 71 2 71 38 73 38 74 38 71 39 74 39 75 39 56 2 76 2 53 2 53 40 76 40 77 40 53 41 77 41 78 41 78 2 79 2 53 2 53 42 79 42 80 42 53 2 80 2 2 2 2 43 80 43 81 43 2 44 81 44 0 44 82 2 83 2 84 2 85 2 86 2 23 2 23 45 86 45 87 45 23 46 87 46 24 46 26 2 88 2 27 2 27 2 88 2 89 2 27 2 89 2 90 2 53 2 61 2 11 2 11 2 61 2 91 2 11 47 91 47 92 47 92 48 91 48 93 48 92 2 93 2 94 2 94 2 95 2 92 2 92 2 95 2 96 2 92 49 96 49 97 49 96 2 98 2 99 2 100 2 101 2 102 2 102 50 101 50 103 50 3 2 5 2 102 2 102 51 5 51 104 51 102 52 104 52 105 52 66 2 106 2 44 2 44 53 106 53 107 53 44 54 107 54 68 54 108 55 109 55 110 55 110 56 109 56 111 56 41 2 112 2 39 2 39 57 112 57 113 57 39 2 113 2 114 2 114 58 113 58 110 58 114 2 110 2 115 2 115 2 110 2 111 2 44 2 116 2 117 2 14 2 16 2 118 2 118 2 16 2 119 2 118 2 119 2 120 2 15 2 121 2 16 2 16 59 121 59 122 59 16 60 122 60 123 60 99 2 124 2 96 2 96 61 124 61 125 61 96 62 125 62 97 62 33 2 126 2 32 2 32 63 126 63 127 63 32 2 127 2 128 2 128 64 127 64 102 64 128 2 102 2 129 2 129 65 102 65 103 65 130 65 131 65 110 65 110 66 131 66 132 66 110 67 132 67 108 67 43 2 133 2 44 2 44 68 133 68 134 68 44 2 134 2 19 2 19 69 134 69 135 69 19 70 135 70 136 70 137 71 138 71 139 71 44 72 140 72 141 72 142 2 116 2 143 2 143 73 116 73 44 73 143 2 44 2 144 2 144 2 44 2 141 2 145 2 142 2 146 2 146 74 142 74 147 74 145 2 148 2 142 2 142 75 148 75 149 75 142 76 149 76 150 76 1 2 151 2 2 2 2 77 151 77 152 77 2 2 152 2 153 2 153 78 152 78 154 78 155 2 156 2 157 2 157 79 156 79 158 79 157 80 158 80 83 80 83 81 158 81 159 81 83 82 159 82 84 82 84 2 160 2 82 2 82 83 160 83 161 83 82 84 161 84 162 84 162 85 161 85 163 85 164 2 165 2 163 2 105 86 166 86 102 86 102 87 166 87 167 87 102 88 167 88 100 88 28 2 30 2 110 2 110 89 30 89 168 89 110 90 168 90 130 90 117 2 169 2 44 2 44 91 169 91 170 91 44 92 170 92 171 92 171 93 172 93 44 93 44 94 172 94 173 94 44 95 173 95 42 95 136 2 174 2 19 2 19 96 174 96 175 96 19 97 175 97 176 97 119 2 177 2 178 2 179 2 180 2 181 2 181 98 180 98 182 98 181 2 182 2 44 2 44 99 182 99 183 99 44 100 183 100 140 100 155 101 184 101 156 101 156 102 184 102 185 102 156 103 185 103 186 103 165 2 187 2 163 2 163 104 187 104 188 104 163 105 188 105 162 105 176 2 189 2 19 2 19 106 189 106 190 106 19 107 190 107 191 107 119 108 192 108 71 108 178 2 193 2 119 2 119 109 193 109 194 109 119 110 194 110 120 110 69 2 71 2 195 2 195 111 71 111 196 111 195 112 196 112 147 112 147 113 196 113 197 113 147 114 197 114 146 114 150 2 198 2 142 2 142 115 198 115 199 115 142 116 199 116 116 116 186 117 200 117 156 117 156 118 200 118 201 118 156 2 201 2 154 2 154 119 201 119 202 119 154 2 202 2 153 2 203 119 204 119 205 119 203 2 205 2 163 2 163 120 205 120 206 120 163 121 206 121 164 121 85 2 23 2 203 2 203 122 23 122 207 122 203 123 207 123 204 123 191 2 208 2 19 2 19 2 208 2 209 2 19 124 209 124 210 124 210 125 209 125 211 125 210 126 211 126 212 126 192 2 119 2 139 2 75 2 213 2 71 2 71 127 213 127 214 127 71 128 214 128 119 128 119 129 214 129 215 129 119 130 215 130 216 130 217 2 218 2 219 2 123 131 220 131 16 131 16 132 220 132 221 132 16 133 221 133 222 133 222 134 221 134 219 134 222 2 219 2 223 2 216 135 224 135 119 135 119 136 224 136 225 136 119 137 225 137 177 137 181 2 226 2 179 2 179 138 226 138 227 138 179 2 227 2 219 2 219 139 227 139 228 139 219 140 228 140 217 140 212 141 229 141 210 141 210 142 229 142 230 142 210 2 230 2 231 2 231 143 230 143 139 143 231 2 139 2 232 2 232 2 139 2 138 2 119 2 233 2 139 2 139 144 233 144 234 144 139 145 234 145 235 145 218 146 236 146 219 146 219 147 236 147 237 147 219 148 237 148 223 148 235 2 238 2 139 2 139 149 238 149 239 149 139 150 239 150 137 150 240 151 241 151 242 151 243 152 240 152 244 152 244 151 240 151 245 151 242 153 246 153 240 153 240 154 246 154 247 154 240 155 247 155 245 155 248 151 249 151 250 151 250 151 249 151 251 151 252 156 253 156 254 156 254 151 255 151 252 151 252 157 255 157 256 157 252 151 256 151 257 151 257 158 256 158 258 158 257 159 258 159 259 159 259 160 260 160 257 160 257 161 260 161 261 161 257 162 261 162 262 162 257 151 263 151 240 151 240 163 263 163 264 163 240 164 264 164 241 164 243 165 265 165 240 165 240 166 265 166 266 166 240 151 266 151 249 151 249 167 266 167 267 167 249 168 267 168 251 168 262 151 268 151 257 151 257 169 268 169 269 169 257 170 269 170 263 170 248 151 270 151 249 151 249 171 270 171 271 171 249 172 271 172 272 172 272 173 271 173 273 173 273 174 274 174 275 174 276 151 277 151 252 151 252 175 277 175 278 175 252 176 278 176 253 176 276 151 279 151 277 151 277 177 279 177 280 177 277 178 280 178 281 178 275 151 282 151 273 151 273 177 282 177 283 177 273 151 283 151 272 151 284 151 285 151 273 151 273 179 285 179 286 179 273 180 286 180 274 180 287 181 288 181 289 181 289 182 288 182 290 182 289 183 290 183 291 183 291 151 290 151 292 151 287 151 289 151 273 151 273 184 289 184 293 184 273 185 293 185 284 185 281 151 294 151 277 151 277 186 294 186 295 186 277 187 295 187 296 187 292 151 297 151 291 151 291 188 297 188 298 188 291 151 298 151 299 151 299 151 298 151 277 151 299 151 277 151 300 151 300 151 277 151 296 151 301 189 302 189 210 189 210 189 302 189 19 189 303 190 304 190 305 190 305 190 304 190 23 190 305 190 23 190 302 190 302 190 23 190 19 190 83 189 82 189 306 189 306 189 82 189 307 189 308 191 53 191 309 191 309 192 53 192 2 192 309 191 2 191 310 191 310 191 2 191 311 191 57 189 53 189 312 189 312 189 53 189 308 189 91 191 61 191 313 191 313 191 61 191 314 191 315 193 316 193 92 193 92 193 316 193 11 193 240 191 249 191 317 191 317 191 249 191 5 191 317 194 5 194 316 194 316 191 5 191 11 191 289 193 291 193 32 193 32 193 291 193 30 193 318 190 44 190 319 190 319 190 44 190 39 190 319 190 39 190 257 190 257 190 39 190 252 190 181 193 44 193 320 193 320 193 44 193 318 193 119 190 16 190 321 190 321 190 16 190 322 190 323 195 324 195 311 195 325 151 326 151 310 151 327 151 328 151 303 151 324 196 329 196 311 196 311 197 329 197 330 197 311 151 330 151 310 151 310 198 330 198 331 198 310 199 331 199 325 199 332 200 333 200 334 200 334 201 333 201 335 201 334 151 335 151 307 151 307 202 335 202 336 202 307 203 336 203 306 203 306 204 336 204 337 204 338 151 339 151 340 151 340 205 339 205 341 205 342 151 343 151 311 151 311 206 343 206 344 206 311 207 344 207 323 207 328 151 345 151 303 151 303 208 345 208 346 208 303 151 346 151 304 151 304 209 346 209 347 209 304 210 347 210 348 210 337 211 349 211 306 211 306 212 349 212 350 212 306 151 350 151 351 151 351 213 350 213 340 213 351 151 340 151 352 151 352 151 340 151 341 151 342 151 353 151 343 151 343 214 353 214 354 214 343 151 354 151 340 151 340 215 354 215 355 215 340 216 355 216 338 216 326 151 356 151 310 151 310 217 356 217 357 217 310 218 357 218 358 218 359 151 360 151 303 151 303 219 360 219 361 219 303 220 361 220 327 220 348 221 362 221 304 221 304 222 362 222 363 222 304 151 363 151 364 151 364 223 363 223 365 223 358 151 366 151 310 151 310 224 366 224 367 224 310 225 367 225 368 225 332 151 369 151 333 151 333 226 369 226 370 226 333 227 370 227 371 227 368 151 372 151 310 151 310 228 372 228 373 228 310 229 373 229 303 229 303 230 373 230 374 230 303 151 374 151 359 151 371 151 375 151 333 151 333 231 375 231 376 231 333 151 376 151 365 151 365 214 376 214 377 214 365 232 377 232 364 232 84 233 337 233 160 233 160 234 337 234 336 234 160 235 336 235 161 235 161 236 336 236 335 236 161 237 335 237 163 237 163 238 335 238 333 238 163 239 333 239 203 239 203 240 333 240 365 240 203 241 365 241 85 241 85 242 365 242 363 242 85 243 363 243 86 243 86 243 363 243 362 243 86 244 362 244 87 244 87 245 362 245 348 245 87 246 348 246 24 246 24 246 348 246 347 246 24 247 347 247 22 247 22 247 347 247 346 247 22 248 346 248 17 248 17 249 346 249 345 249 17 250 345 250 18 250 18 251 345 251 328 251 18 252 328 252 20 252 20 252 328 252 327 252 20 253 327 253 21 253 21 254 327 254 361 254 21 255 361 255 45 255 45 256 361 256 360 256 45 257 360 257 46 257 46 258 360 258 359 258 46 259 359 259 47 259 47 260 359 260 374 260 47 261 374 261 48 261 48 262 374 262 373 262 48 263 373 263 49 263 49 264 373 264 372 264 49 189 372 189 52 189 52 189 372 189 368 189 52 265 368 265 54 265 54 265 368 265 367 265 54 266 367 266 55 266 55 267 367 267 366 267 55 268 366 268 56 268 56 269 366 269 358 269 56 270 358 270 76 270 76 271 358 271 357 271 76 272 357 272 77 272 77 273 357 273 356 273 77 274 356 274 78 274 78 275 356 275 326 275 78 276 326 276 79 276 79 276 326 276 325 276 79 277 325 277 80 277 80 278 325 278 331 278 80 279 331 279 81 279 81 280 331 280 330 280 81 281 330 281 0 281 0 281 330 281 329 281 0 282 329 282 1 282 1 282 329 282 324 282 1 283 324 283 151 283 151 284 324 284 323 284 151 285 323 285 152 285 152 285 323 285 344 285 152 286 344 286 154 286 154 287 344 287 343 287 154 288 343 288 156 288 156 289 343 289 340 289 156 290 340 290 158 290 158 291 340 291 350 291 158 292 350 292 159 292 159 293 350 293 349 293 159 294 349 294 84 294 84 295 349 295 337 295 50 296 241 296 51 296 51 234 241 234 264 234 51 235 264 235 64 235 64 235 264 235 263 235 64 297 263 297 65 297 65 298 263 298 269 298 65 299 269 299 66 299 66 240 269 240 268 240 66 241 268 241 106 241 106 242 268 242 262 242 106 243 262 243 107 243 107 300 262 300 261 300 107 245 261 245 68 245 68 245 261 245 260 245 68 246 260 246 67 246 67 301 260 301 259 301 67 302 259 302 37 302 37 302 259 302 258 302 37 249 258 249 38 249 38 249 258 249 256 249 38 250 256 250 40 250 40 251 256 251 255 251 40 252 255 252 41 252 41 303 255 303 254 303 41 304 254 304 112 304 112 253 254 253 253 253 112 256 253 256 113 256 113 256 253 256 278 256 113 257 278 257 110 257 110 258 278 258 277 258 110 305 277 305 28 305 28 306 277 306 298 306 28 307 298 307 29 307 29 307 298 307 297 307 29 308 297 308 31 308 31 309 297 309 292 309 31 189 292 189 33 189 33 189 292 189 290 189 33 310 290 310 126 310 126 310 290 310 288 310 126 311 288 311 127 311 127 311 288 311 287 311 127 312 287 312 102 312 102 313 287 313 273 313 102 270 273 270 3 270 3 271 273 271 271 271 3 272 271 272 4 272 4 272 271 272 270 272 4 275 270 275 6 275 6 314 270 314 248 314 6 315 248 315 7 315 7 276 248 276 250 276 7 277 250 277 8 277 8 278 250 278 251 278 8 279 251 279 9 279 9 279 251 279 267 279 9 316 267 316 10 316 10 316 267 316 266 316 10 317 266 317 12 317 12 282 266 282 265 282 12 283 265 283 13 283 13 283 265 283 243 283 13 318 243 318 34 318 34 285 243 285 244 285 34 286 244 286 35 286 35 287 244 287 245 287 35 288 245 288 36 288 36 319 245 319 247 319 36 320 247 320 62 320 62 321 247 321 246 321 62 293 246 293 63 293 63 293 246 293 242 293 63 294 242 294 50 294 50 322 242 322 241 322 317 323 319 323 240 323 240 324 319 324 257 324 305 325 309 325 303 325 303 326 309 326 310 326 309 151 305 151 308 151 308 151 305 151 302 151 308 151 302 151 378 151 319 151 317 151 318 151 318 151 317 151 316 151 379 151 380 151 301 151 314 327 381 327 382 327 301 328 383 328 384 328 379 329 301 329 385 329 378 151 386 151 308 151 308 330 386 330 387 330 308 331 387 331 388 331 314 151 382 151 313 151 389 332 390 332 391 332 385 333 301 333 392 333 392 334 301 334 384 334 392 151 384 151 393 151 393 335 384 335 394 335 393 336 394 336 395 336 395 337 396 337 393 337 393 338 396 338 397 338 393 339 397 339 398 339 399 151 321 151 400 151 400 340 321 340 401 340 380 151 402 151 301 151 301 341 402 341 403 341 301 151 403 151 302 151 302 342 403 342 404 342 302 343 404 343 378 343 405 151 406 151 314 151 314 344 406 344 407 344 314 345 407 345 381 345 405 151 408 151 406 151 406 346 408 346 409 346 406 151 409 151 410 151 389 347 391 347 315 347 315 151 391 151 411 151 315 348 411 348 412 348 412 151 413 151 315 151 315 349 413 349 313 349 315 151 313 151 316 151 316 151 313 151 382 151 316 350 382 350 414 350 398 151 415 151 393 151 393 351 415 351 416 351 393 352 416 352 417 352 410 151 418 151 406 151 406 353 418 353 419 353 406 354 419 354 420 354 388 151 421 151 308 151 308 355 421 355 422 355 308 151 422 151 312 151 312 356 422 356 423 356 312 357 423 357 424 357 424 358 423 358 406 358 424 151 406 151 425 151 425 151 406 151 420 151 390 151 426 151 391 151 391 359 426 359 427 359 391 151 427 151 428 151 429 360 430 360 322 360 322 361 430 361 431 361 322 151 431 151 321 151 321 362 431 362 432 362 321 151 432 151 401 151 399 151 433 151 321 151 321 363 433 363 434 363 321 151 434 151 435 151 435 364 434 364 436 364 318 365 437 365 438 365 439 151 440 151 322 151 322 366 440 366 441 366 322 367 441 367 429 367 383 151 301 151 442 151 442 368 301 368 443 368 442 369 443 369 444 369 445 151 446 151 442 151 442 370 446 370 447 370 442 371 447 371 436 371 436 372 447 372 448 372 436 373 448 373 435 373 414 151 449 151 316 151 316 374 449 374 450 374 316 375 450 375 451 375 451 151 452 151 316 151 316 376 452 376 453 376 316 377 453 377 454 377 455 151 320 151 456 151 456 151 320 151 318 151 456 151 318 151 457 151 457 378 318 378 438 378 444 379 458 379 442 379 442 380 458 380 459 380 442 381 459 381 445 381 460 151 461 151 462 151 462 382 461 382 463 382 462 383 463 383 464 383 464 151 465 151 462 151 462 384 465 384 466 384 462 385 466 385 467 385 467 386 466 386 468 386 467 151 468 151 417 151 417 387 468 387 469 387 417 388 469 388 393 388 454 151 470 151 316 151 316 389 470 389 471 389 316 390 471 390 472 390 473 151 474 151 475 151 475 391 474 391 476 391 475 151 476 151 477 151 455 151 478 151 320 151 320 389 478 389 474 389 320 151 474 151 479 151 479 151 474 151 473 151 476 151 480 151 322 151 322 392 480 392 481 392 322 393 481 393 439 393 472 151 460 151 316 151 316 394 460 394 462 394 316 151 462 151 318 151 318 395 462 395 482 395 318 396 482 396 437 396 322 151 483 151 476 151 476 397 483 397 484 397 476 398 484 398 485 398 485 399 486 399 476 399 476 400 486 400 487 400 476 401 487 401 477 401 208 402 378 402 209 402 209 403 378 403 404 403 209 404 404 404 211 404 211 404 404 404 403 404 211 405 403 405 212 405 212 406 403 406 402 406 212 407 402 407 229 407 229 407 402 407 380 407 229 408 380 408 230 408 230 408 380 408 379 408 230 409 379 409 139 409 139 409 379 409 385 409 139 410 385 410 192 410 192 410 385 410 392 410 192 411 392 411 71 411 71 411 392 411 393 411 71 412 393 412 196 412 196 412 393 412 469 412 196 413 469 413 197 413 197 414 469 414 468 414 197 415 468 415 146 415 146 416 468 416 466 416 146 417 466 417 145 417 145 417 466 417 465 417 145 418 465 418 148 418 148 418 465 418 464 418 148 419 464 419 149 419 149 420 464 420 463 420 149 421 463 421 150 421 150 422 463 422 461 422 150 423 461 423 198 423 198 424 461 424 460 424 198 425 460 425 199 425 199 426 460 426 472 426 199 427 472 427 116 427 116 428 472 428 471 428 116 189 471 189 117 189 117 189 471 189 470 189 117 429 470 429 169 429 169 430 470 430 454 430 169 431 454 431 170 431 170 432 454 432 453 432 170 433 453 433 171 433 171 434 453 434 452 434 171 435 452 435 172 435 172 436 452 436 451 436 172 437 451 437 173 437 173 437 451 437 450 437 173 438 450 438 42 438 42 439 450 439 449 439 42 440 449 440 43 440 43 440 449 440 414 440 43 441 414 441 133 441 133 442 414 442 382 442 133 443 382 443 134 443 134 444 382 444 381 444 134 445 381 445 135 445 135 445 381 445 407 445 135 446 407 446 136 446 136 446 407 446 406 446 136 447 406 447 174 447 174 447 406 447 423 447 174 448 423 448 175 448 175 448 423 448 422 448 175 449 422 449 176 449 176 450 422 450 421 450 176 451 421 451 189 451 189 451 421 451 388 451 189 452 388 452 190 452 190 453 388 453 387 453 190 454 387 454 191 454 191 454 387 454 386 454 191 455 386 455 208 455 208 456 386 456 378 456 215 402 383 402 216 402 216 403 383 403 442 403 216 404 442 404 224 404 224 404 442 404 436 404 224 457 436 457 225 457 225 458 436 458 434 458 225 407 434 407 177 407 177 407 434 407 433 407 177 459 433 459 178 459 178 460 433 460 399 460 178 409 399 409 193 409 193 409 399 409 400 409 193 410 400 410 194 410 194 410 400 410 401 410 194 461 401 461 120 461 120 461 401 461 432 461 120 462 432 462 118 462 118 462 432 462 431 462 118 413 431 413 14 413 14 414 431 414 430 414 14 415 430 415 15 415 15 416 430 416 429 416 15 417 429 417 121 417 121 417 429 417 441 417 121 463 441 463 122 463 122 464 441 464 440 464 122 465 440 465 123 465 123 465 440 465 439 465 123 466 439 466 220 466 220 467 439 467 481 467 220 423 481 423 221 423 221 424 481 424 480 424 221 425 480 425 219 425 219 426 480 426 476 426 219 427 476 427 179 427 179 428 476 428 474 428 179 189 474 189 180 189 180 189 474 189 478 189 180 468 478 468 182 468 182 469 478 469 455 469 182 431 455 431 183 431 183 432 455 432 456 432 183 470 456 470 140 470 140 471 456 471 457 471 140 472 457 472 141 472 141 473 457 473 438 473 141 474 438 474 144 474 144 475 438 475 437 475 144 476 437 476 143 476 143 476 437 476 482 476 143 440 482 440 142 440 142 440 482 440 462 440 142 477 462 477 147 477 147 477 462 477 467 477 147 478 467 478 195 478 195 478 467 478 417 478 195 445 417 445 69 445 69 445 417 445 416 445 69 446 416 446 70 446 70 446 416 446 415 446 70 447 415 447 72 447 72 447 415 447 398 447 72 479 398 479 73 479 73 479 398 479 397 479 73 480 397 480 74 480 74 481 397 481 396 481 74 482 396 482 75 482 75 482 396 482 395 482 75 483 395 483 213 483 213 484 395 484 394 484 213 454 394 454 214 454 214 454 394 454 384 454 214 485 384 485 215 485 215 486 384 486 383 486 315 487 92 487 97 487 315 488 97 488 389 488 389 489 97 489 125 489 389 490 125 490 390 490 390 491 125 491 124 491 390 492 124 492 426 492 426 493 124 493 99 493 426 494 99 494 427 494 427 495 99 495 98 495 427 495 98 495 428 495 428 496 98 496 96 496 428 497 96 497 391 497 391 498 96 498 95 498 391 498 95 498 411 498 411 499 95 499 94 499 411 499 94 499 412 499 412 500 94 500 93 500 412 500 93 500 413 500 413 501 93 501 91 501 413 502 91 502 313 502 57 503 312 503 424 503 57 504 424 504 25 504 25 505 424 505 425 505 25 506 425 506 26 506 26 507 425 507 420 507 26 508 420 508 88 508 88 509 420 509 419 509 88 510 419 510 89 510 89 511 419 511 418 511 89 511 418 511 90 511 90 512 418 512 410 512 90 513 410 513 27 513 27 514 410 514 409 514 27 515 409 515 58 515 58 516 409 516 408 516 58 516 408 516 59 516 59 517 408 517 405 517 59 518 405 518 60 518 60 519 405 519 314 519 60 520 314 520 61 520 119 521 321 521 435 521 119 522 435 522 233 522 233 523 435 523 448 523 233 524 448 524 234 524 234 525 448 525 447 525 234 525 447 525 235 525 235 526 447 526 446 526 235 527 446 527 238 527 238 528 446 528 445 528 238 529 445 529 239 529 239 530 445 530 459 530 239 530 459 530 137 530 137 531 459 531 458 531 137 532 458 532 138 532 138 533 458 533 444 533 138 534 444 534 232 534 232 535 444 535 443 535 232 536 443 536 231 536 231 537 443 537 301 537 231 538 301 538 210 538 322 539 16 539 222 539 322 540 222 540 483 540 483 541 222 541 223 541 483 541 223 541 484 541 484 542 223 542 237 542 484 542 237 542 485 542 485 543 237 543 236 543 485 543 236 543 486 543 486 544 236 544 218 544 486 545 218 545 487 545 487 546 218 546 217 546 487 546 217 546 477 546 477 547 217 547 228 547 477 548 228 548 475 548 475 549 228 549 227 549 475 550 227 550 473 550 473 551 227 551 226 551 473 552 226 552 479 552 479 553 226 553 181 553 479 554 181 554 320 554 289 555 32 555 128 555 289 555 128 555 293 555 293 556 128 556 129 556 293 556 129 556 284 556 284 557 129 557 103 557 284 558 103 558 285 558 285 559 103 559 101 559 285 560 101 560 286 560 286 561 101 561 100 561 286 561 100 561 274 561 274 562 100 562 167 562 274 563 167 563 275 563 275 564 167 564 166 564 275 564 166 564 282 564 282 565 166 565 105 565 282 566 105 566 283 566 283 567 105 567 104 567 283 568 104 568 272 568 272 569 104 569 5 569 272 570 5 570 249 570 30 571 291 571 299 571 30 571 299 571 168 571 168 572 299 572 300 572 168 572 300 572 130 572 130 573 300 573 296 573 130 574 296 574 131 574 131 575 296 575 295 575 131 576 295 576 132 576 132 577 295 577 294 577 132 577 294 577 108 577 108 578 294 578 281 578 108 579 281 579 109 579 109 580 281 580 280 580 109 580 280 580 111 580 111 581 280 581 279 581 111 582 279 582 115 582 115 583 279 583 276 583 115 584 276 584 114 584 114 585 276 585 252 585 114 586 252 586 39 586 83 587 306 587 351 587 83 587 351 587 157 587 157 588 351 588 352 588 157 588 352 588 155 588 155 589 352 589 341 589 155 590 341 590 184 590 184 591 341 591 339 591 184 592 339 592 185 592 185 593 339 593 338 593 185 593 338 593 186 593 186 594 338 594 355 594 186 595 355 595 200 595 200 596 355 596 354 596 200 597 354 597 201 597 201 598 354 598 353 598 201 598 353 598 202 598 202 599 353 599 342 599 202 599 342 599 153 599 153 600 342 600 311 600 153 600 311 600 2 600 307 601 82 601 162 601 307 601 162 601 334 601 334 602 162 602 188 602 334 602 188 602 332 602 332 603 188 603 187 603 332 604 187 604 369 604 369 605 187 605 165 605 369 606 165 606 370 606 370 607 165 607 164 607 370 607 164 607 371 607 371 608 164 608 206 608 371 609 206 609 375 609 375 610 206 610 205 610 375 611 205 611 376 611 376 612 205 612 204 612 376 612 204 612 377 612 377 613 204 613 207 613 377 613 207 613 364 613 364 614 207 614 23 614 364 614 23 614 304 614</p>
        </triangles>
      </mesh>
    </geometry>
  </library_geometries>
  <library_visual_scenes>
    <visual_scene id="Scene" name="Scene">
      <node id="chin" name="chin" type="NODE">
        <matrix sid="transform">9.99987e-4 0 0 0.05640965 0 9.99987e-4 0 0.08592716 0 0 9.99987e-4 0.01244246 0 0 0 1</matrix>
        <instance_geometry url="#chin-mesh" name="chin">
          <bind_material>
            <technique_common>
              <instance_material symbol="Material_001-material" target="#Material_001-material"/>
            </technique_common>
          </bind_material>
        </instance_geometry>
      </node>
    </visual_scene>
  </library_visual_scenes>
  <scene>
    <instance_visual_scene url="#Scene"/>
  </scene>
</COLLADA>