<?xml version="1.0" encoding="utf-8"?>
<COLLADA xmlns="http://www.collada.org/2005/11/COLLADASchema" version="1.4.1" xmlns:xsi="http://www.w3.org/2001/XMLSchema-instance">
  <asset>
    <contributor>
      <author>Blender User</author>
      <authoring_tool>Blender 3.6.0 commit date:2023-06-27, commit time:08:08, hash:c7fc78b81ecb</authoring_tool>
    </contributor>
    <created>2023-09-18T18:17:32</created>
    <modified>2023-09-18T18:17:32</modified>
    <unit name="meter" meter="1"/>
    <up_axis>Z_UP</up_axis>
  </asset>
  <library_effects>
    <effect id="Material_001-effect">
      <profile_COMMON>
        <technique sid="common">
          <lambert>
            <emission>
              <color sid="emission">0 0 0 1</color>
            </emission>
            <diffuse>
              <color sid="diffuse">0.01466943 0.01466943 0.01466943 1</color>
            </diffuse>
            <index_of_refraction>
              <float sid="ior">1.45</float>
            </index_of_refraction>
          </lambert>
        </technique>
      </profile_COMMON>
    </effect>
  </library_effects>
  <library_images/>
  <library_materials>
    <material id="Material_001-material" name="Material.001">
      <instance_effect url="#Material_001-effect"/>
    </material>
  </library_materials>
  <library_geometries>
    <geometry id="slider_rev-mesh" name="slider rev">
      <mesh>
        <source id="slider_rev-mesh-positions">
          <float_array id="slider_rev-mesh-positions-array" count="432">-11.98492 43.94585 -12.63846 -11.98492 44.70876 -12.4553 -11.98492 45.16368 -2.100023 -11.98492 45.43363 12.15501 -11.98492 44.70876 12.45526 -11.98492 45.16368 2.099977 -11.98492 47.91897 -9.245108 -11.98492 48.10213 -8.482195 -11.98492 48.16368 -7.700023 -11.98492 48.16368 7.699979 -11.98492 48.10213 8.482151 -11.98492 43.94585 12.63842 -11.98492 43.16368 12.69998 -11.98492 -8.836318 2.099977 -11.98492 -11.83632 12.69998 -11.98492 -8.836318 -2.100023 -11.98492 -11.83632 -12.70002 -11.98492 43.16368 -12.70002 -11.98492 45.43363 -12.15505 -11.98492 46.10261 -11.74511 -11.98492 46.69922 -11.23556 -11.98492 47.20876 -10.63895 -11.98492 47.61871 -9.969976 -11.98492 47.91897 9.245063 -11.98492 47.61871 9.96993 -11.98492 47.20876 10.6389 -11.98492 46.69922 11.23551 -11.98492 46.10261 11.74506 -21.98492 48.10213 -8.482195 -21.98492 47.91897 -9.245108 -21.98492 45.16368 -5.000023 -21.98492 45.16368 4.999976 -21.98492 47.61871 9.96993 -21.98492 47.91897 9.245063 -21.98492 47.61871 -9.969976 -21.98492 47.20876 -10.63895 -21.98492 46.69922 -11.23556 -21.98492 44.70876 -12.4553 -21.98492 43.94585 -12.63846 -21.98492 43.16368 -12.70002 -21.98492 -8.836318 -5.000023 -21.98492 -16.83632 -12.70002 -21.98492 -8.836318 4.999976 -21.98492 -16.83632 12.69998 -21.98492 43.16368 12.69998 -21.98492 43.94585 12.63842 -21.98492 48.10213 8.482151 -21.98492 48.16368 7.699979 -21.98492 48.16368 -7.700023 -21.98492 46.10261 -11.74511 -21.98492 45.43363 -12.15505 -21.98492 44.70876 12.45526 -21.98492 45.43363 12.15501 -21.98492 46.10261 11.74506 -21.98492 46.69922 11.23551 -21.98492 47.20876 10.6389 43.79726 -21.83632 -12.63846 44.56016 -21.83632 -12.4553 45.01508 -21.83632 -2.100023 45.28503 -21.83632 12.15501 44.56016 -21.83632 12.45526 45.01508 -21.83632 2.099977 45.28503 -21.83632 -12.15505 45.95401 -21.83632 -11.74511 46.55062 -21.83632 -11.23556 47.06016 -21.83632 -10.63895 47.47011 -21.83632 -9.969976 47.77037 -21.83632 -9.245108 47.95353 -21.83632 -8.482195 48.01508 -21.83632 -7.700023 48.01508 -21.83632 7.699979 47.95353 -21.83632 8.482151 43.79726 -21.83632 12.63842 43.01508 -21.83632 12.69998 -8.984916 -21.83632 2.099977 -16.98492 -21.83632 12.69998 -8.984916 -21.83632 -2.100023 -16.98492 -21.83632 -12.70002 43.01508 -21.83632 -12.70002 47.77037 -21.83632 9.245063 47.47011 -21.83632 9.96993 47.06016 -21.83632 10.6389 46.55062 -21.83632 11.23551 45.95401 -21.83632 11.74506 48.01508 -11.83632 7.699979 48.01508 -11.83632 -7.700023 47.95353 -11.83632 -8.482195 47.77037 -11.83632 -9.245108 45.01508 -11.83632 -5.000023 47.47011 -11.83632 -9.969976 47.06016 -11.83632 -10.63895 46.55062 -11.83632 -11.23556 45.01508 -11.83632 4.999976 47.47011 -11.83632 9.96993 47.77037 -11.83632 9.245063 45.95401 -11.83632 -11.74511 45.28503 -11.83632 -12.15505 44.56016 -11.83632 -12.4553 43.79726 -11.83632 -12.63846 43.01508 -11.83632 -12.70002 -8.984916 -11.83632 -5.000023 -8.984916 -11.83632 4.999976 43.01508 -11.83632 12.69998 43.79726 -11.83632 12.63842 47.95353 -11.83632 8.482151 44.56016 -11.83632 12.45526 45.28503 -11.83632 12.15501 45.95401 -11.83632 11.74506 46.55062 -11.83632 11.23551 47.06016 -11.83632 10.6389 -18.53 -21.5916 12.69998 -19.25487 -21.29135 12.69998 -19.92384 -20.8814 12.69998 -17.76709 -21.77476 12.69998 -21.92336 -17.61849 12.69998 -21.7402 -18.3814 12.69998 -21.43995 -19.10627 12.69998 -21.03 -19.77524 12.69998 -20.52045 -20.37185 12.69998 -21.43995 -19.10627 -12.70002 -21.03 -19.77524 -12.70002 -20.52045 -20.37185 -12.70002 -21.7402 -18.3814 -12.70002 -21.92336 -17.61849 -12.70002 -17.76709 -21.77476 -12.70002 -18.53 -21.5916 -12.70002 -19.25487 -21.29135 -12.70002 -19.92384 -20.8814 -12.70002 -8.984916 -14.83632 4.999976 -8.984916 -14.83632 2.099977 -8.984916 -14.83632 -5.000023 -8.984916 -14.83632 -2.100023 45.01508 -14.83632 -5.000023 45.01508 -14.83632 -2.100023 45.01508 -14.83632 4.999976 45.01508 -14.83632 2.099977 -18.98492 45.16368 -5.000023 -18.98492 45.16368 -2.100023 -18.98492 45.16368 4.999976 -18.98492 45.16368 2.099977 -18.98492 -8.836318 -2.100023 -18.98492 -8.836318 -5.000023 -18.98492 -8.836318 4.999976 -18.98492 -8.836318 2.099977</float_array>
          <technique_common>
            <accessor source="#slider_rev-mesh-positions-array" count="144" stride="3">
              <param name="X" type="float"/>
              <param name="Y" type="float"/>
              <param name="Z" type="float"/>
            </accessor>
          </technique_common>
        </source>
        <source id="slider_rev-mesh-normals">
          <float_array id="slider_rev-mesh-normals-array" count="480">1 0 0 1 -2.0705e-6 0 1 4.47376e-6 0 1 2.83492e-6 0 1 5.40008e-7 0 1 -3.9406e-7 0 1 1.53009e-7 0 1 2.74233e-6 0 1 -2.30214e-6 0 1 -4.60427e-7 0 1 1.17529e-6 0 1 -1.07106e-6 0 1 1.11586e-6 0 -1 0 0 -1 2.33185e-6 0 -1 -1.03666e-6 0 -1 2.79575e-6 0 -1 -1.21238e-7 0 -1 1.81856e-6 0 -1 -5.29899e-6 0 -1 1.51816e-6 0 -1 2.03451e-6 0 -1 -3.03632e-6 0 -1 -3.89477e-6 0 -1 3.98306e-6 0 -1 -3.98306e-6 0 -1 4.67372e-6 0 -1 -1.86383e-6 0 0 -1 0 0 -1 2.5881e-7 0 -1 -2.58812e-7 0 -1 1.17529e-6 0 -1 -6.90634e-7 0 -1 -4.47379e-6 0 -1 2.39195e-6 0 -1 -2.39197e-6 0 -1 4.26521e-7 0 -1 -3.83869e-7 0 -1 2.23686e-6 0 -1 6.9064e-7 0 -1 -1.1753e-6 0 -1 1.36946e-6 0 1 0 0 1 -1.16593e-6 0 1 5.18326e-7 0 1 -6.98945e-7 0 1 1.31167e-6 0 1 4.23608e-7 0 1 -3.621e-7 0 1 2.93579e-7 0 1 -2.93579e-7 0 1 -5.21868e-7 0 1 5.21868e-7 0 1 3.62094e-7 0 1 6.9894e-7 0 1 -5.18326e-7 0 0 1 4.41454e-7 0 1 1.05536e-6 0 1 5.05035e-7 0 1 -2.02014e-7 0 1 0 0 -1 -2.20727e-7 0 -1 7.03864e-7 0 -1 5.71886e-7 0 -1 7.72544e-7 0 -1 2.04971e-7 0 -1 0 0 -1 1 8.76942e-7 0 -0.9969173 -0.07846009 0 -0.9723702 -0.2334443 0 -0.9723702 -0.2334443 0 -0.9238774 -0.3826887 0 -0.9238818 -0.3826783 0 -0.8526392 -0.5225003 0 -0.7604091 -0.6494445 0 -0.760406 -0.649448 0 -0.649445 -0.7604086 0 -0.649448 -0.7604061 0 -0.5225003 -0.8526391 0 -0.522499 -0.85264 0 -0.3826817 -0.9238803 0 -0.3826838 -0.9238794 0 -0.2334449 -0.97237 0 -0.2334449 -0.9723701 0 -0.07846099 -0.9969173 0 -0.07846081 -0.9969173 0 0 0.9969178 -0.0784536 0 0.9723697 -0.2334468 0 0.9723696 -0.2334468 0 0.9238767 -0.3826903 0 0.8526393 -0.5224999 0 0.8526393 -0.5225 0 0.7604097 -0.6494439 0 0.7604095 -0.6494439 0 0.6494489 -0.7604053 0 0.649445 -0.7604087 0 0.5224972 -0.8526409 0 0.5224971 -0.8526411 0 0.3826816 -0.9238803 0 0.3826844 -0.9238792 0 0.2334462 -0.9723698 0 0.2334461 -0.9723698 0 0.07845968 -0.9969173 0 0.07845908 -0.9969174 0 0.9969179 0.07845366 0 0.9723696 0.2334468 0 0.9723697 0.2334468 0 0.9238765 0.3826907 0 0.9238766 0.3826906 0 0.8526396 0.5224995 0 0.8526397 0.5224994 0 0.760409 0.6494445 0 0.760409 0.6494445 0 0.6494495 0.7604048 0 0.6494457 0.760408 0 0.5224962 0.8526417 0 0.5224964 0.8526415 0 0.3826826 0.9238799 0 0.3826854 0.9238788 0 0.2334461 0.9723698 0 0.2334462 0.9723698 0 0.07845848 0.9969174 0 0.07845789 0.9969175 0.9969179 0 0.07845366 0.9969179 0 0.07845366 0.97237 0 0.2334452 0.9723702 0 0.2334448 0.9238772 0 0.3826889 0.9238771 0 0.3826895 0.8526389 0 0.5225008 0.852639 0 0.5225006 0.7604103 0 0.649443 0.7604095 0 0.6494439 0.6494467 0 0.7604073 0.5224969 0 0.8526412 0.5224956 0 0.852642 0.3826848 0 0.923879 0.3826832 0 0.9238798 0.2334461 0 0.9723698 0.07845926 0 0.9969174 0.07845735 0 0.9969175 0.9969179 0 -0.07845366 0.9969179 0 -0.07845354 0.97237 0 -0.2334452 0.9723702 0 -0.2334448 0.9238776 0 -0.3826882 0.9238771 0 -0.3826896 0.852639 0 -0.5225006 0.8526383 0 -0.5225017 0.7604095 0 -0.6494439 0.7604112 0 -0.6494421 0.6494455 0 -0.7604082 0.6494467 0 -0.7604073 0.5224956 0 -0.852642 0.5224984 0 -0.8526404 0.3826832 0 -0.9238798 0.2334461 0 -0.9723698 0.07845932 0 -0.9969174 0.07845926 0 -0.9969174</float_array>
          <technique_common>
            <accessor source="#slider_rev-mesh-normals-array" count="160" stride="3">
              <param name="X" type="float"/>
              <param name="Y" type="float"/>
              <param name="Z" type="float"/>
            </accessor>
          </technique_common>
        </source>
        <vertices id="slider_rev-mesh-vertices">
          <input semantic="POSITION" source="#slider_rev-mesh-positions"/>
        </vertices>
        <triangles material="Material_001-material" count="292">
          <input semantic="VERTEX" source="#slider_rev-mesh-vertices" offset="0"/>
          <input semantic="NORMAL" source="#slider_rev-mesh-normals" offset="1"/>
          <p>0 0 1 0 2 0 3 1 4 1 5 1 6 2 7 2 2 2 2 0 7 0 8 0 2 0 8 0 5 0 5 0 8 0 9 0 5 3 9 3 10 3 4 0 11 0 5 0 5 4 11 4 12 4 5 0 12 0 13 0 13 0 12 0 14 0 13 0 14 0 15 0 15 0 14 0 16 0 15 0 16 0 2 0 2 0 16 0 17 0 2 5 17 5 0 5 1 0 18 0 2 0 2 0 18 0 19 0 2 6 19 6 20 6 20 0 21 0 2 0 2 7 21 7 22 7 2 8 22 8 6 8 10 0 23 0 5 0 5 9 23 9 24 9 5 10 24 10 25 10 25 0 26 0 5 0 5 11 26 11 27 11 5 12 27 12 3 12 28 13 29 13 30 13 31 14 32 14 33 14 29 13 34 13 30 13 30 15 34 15 35 15 30 16 35 16 36 16 37 13 38 13 30 13 30 17 38 17 39 17 30 13 39 13 40 13 40 13 39 13 41 13 40 13 41 13 42 13 42 13 41 13 43 13 42 13 43 13 31 13 31 13 43 13 44 13 31 18 44 18 45 18 33 19 46 19 31 19 31 20 46 20 47 20 31 21 47 21 30 21 30 13 47 13 48 13 30 22 48 22 28 22 36 13 49 13 30 13 30 23 49 23 50 23 30 24 50 24 37 24 45 13 51 13 31 13 31 25 51 25 52 25 31 26 52 26 53 26 53 13 54 13 31 13 31 27 54 27 55 27 31 13 55 13 32 13 56 28 57 28 58 28 59 29 60 29 61 29 57 30 62 30 58 30 58 28 62 28 63 28 58 28 63 28 64 28 64 28 65 28 58 28 58 31 65 31 66 31 58 32 66 32 67 32 67 33 68 33 58 33 58 34 68 34 69 34 58 28 69 28 61 28 61 28 69 28 70 28 61 35 70 35 71 35 60 28 72 28 61 28 61 28 72 28 73 28 61 36 73 36 74 36 74 37 73 37 75 37 74 28 75 28 76 28 76 28 75 28 77 28 76 28 77 28 58 28 58 28 77 28 78 28 58 28 78 28 56 28 71 38 79 38 61 38 61 39 79 39 80 39 61 40 80 40 81 40 81 41 82 41 61 41 61 28 82 28 83 28 61 28 83 28 59 28 70 0 69 0 84 0 84 0 69 0 85 0 86 42 87 42 88 42 87 43 89 43 88 43 88 44 89 44 90 44 88 45 90 45 91 45 92 46 93 46 94 46 91 47 95 47 88 47 88 42 95 42 96 42 88 48 96 48 97 48 97 42 98 42 88 42 88 42 98 42 99 42 88 49 99 49 100 49 100 42 99 42 16 42 100 42 16 42 101 42 101 42 16 42 14 42 101 50 14 50 92 50 92 42 14 42 102 42 92 42 102 42 103 42 94 42 104 42 92 42 92 51 104 51 84 51 92 42 84 42 88 42 88 42 84 42 85 42 88 52 85 52 86 52 103 42 105 42 92 42 92 53 105 53 106 53 92 42 106 42 107 42 107 42 108 42 92 42 92 54 108 54 109 54 92 55 109 55 93 55 48 42 47 42 8 42 8 42 47 42 9 42 12 56 44 56 14 56 14 56 44 56 43 56 110 56 14 56 111 56 111 56 14 56 112 56 73 56 102 56 75 56 75 56 102 56 14 56 75 56 14 56 113 56 113 56 14 56 110 56 43 56 114 56 14 56 14 57 114 57 115 57 14 58 115 58 116 58 116 56 117 56 14 56 14 59 117 59 118 59 14 60 118 60 112 60 16 61 99 61 78 61 39 61 17 61 41 61 41 61 17 61 16 61 119 61 16 61 120 61 120 61 16 61 121 61 119 61 122 61 16 61 16 62 122 62 123 62 16 63 123 63 41 63 78 61 77 61 16 61 16 64 77 64 124 64 16 65 124 65 125 65 125 61 126 61 16 61 16 66 126 66 127 66 16 67 127 67 121 67 101 0 128 0 100 0 100 68 128 68 129 68 130 0 100 0 131 0 131 0 100 0 129 0 131 0 129 0 76 0 76 0 129 0 74 0 88 13 132 13 92 13 92 13 132 13 133 13 134 13 92 13 135 13 135 13 92 13 133 13 135 13 133 13 61 13 61 13 133 13 58 13 88 56 100 56 132 56 132 56 100 56 130 56 132 42 130 42 133 42 133 42 130 42 131 42 133 56 131 56 58 56 58 56 131 56 76 56 61 61 74 61 135 61 135 61 74 61 129 61 135 42 129 42 134 42 134 42 129 42 128 42 134 61 128 61 92 61 92 61 128 61 101 61 43 69 41 69 123 69 43 69 123 69 114 69 114 70 123 70 122 70 114 71 122 71 115 71 115 72 122 72 119 72 115 73 119 73 116 73 116 74 119 74 120 74 116 74 120 74 117 74 117 75 120 75 121 75 117 76 121 76 118 76 118 77 121 77 127 77 118 78 127 78 112 78 112 79 127 79 126 79 112 80 126 80 111 80 111 81 126 81 125 81 111 82 125 82 110 82 110 83 125 83 124 83 110 84 124 84 113 84 113 85 124 85 77 85 113 86 77 86 75 86 48 87 8 87 7 87 48 87 7 87 28 87 28 88 7 88 6 88 28 89 6 89 29 89 29 90 6 90 22 90 29 90 22 90 34 90 34 91 22 91 21 91 34 92 21 92 35 92 35 93 21 93 20 93 35 94 20 94 36 94 36 95 20 95 19 95 36 96 19 96 49 96 49 97 19 97 18 97 49 98 18 98 50 98 50 99 18 99 1 99 50 100 1 100 37 100 37 101 1 101 0 101 37 102 0 102 38 102 38 103 0 103 17 103 38 104 17 104 39 104 9 105 47 105 46 105 9 105 46 105 10 105 10 106 46 106 33 106 10 107 33 107 23 107 23 108 33 108 32 108 23 109 32 109 24 109 24 110 32 110 55 110 24 111 55 111 25 111 25 112 55 112 54 112 25 113 54 113 26 113 26 114 54 114 53 114 26 115 53 115 27 115 27 116 53 116 52 116 27 117 52 117 3 117 3 118 52 118 51 118 3 119 51 119 4 119 4 120 51 120 45 120 4 121 45 121 11 121 11 122 45 122 44 122 11 123 44 123 12 123 70 124 84 124 104 124 70 125 104 125 71 125 71 126 104 126 94 126 71 127 94 127 79 127 79 128 94 128 93 128 79 129 93 129 80 129 80 130 93 130 109 130 80 131 109 131 81 131 81 132 109 132 108 132 81 133 108 133 82 133 82 134 108 134 107 134 82 134 107 134 83 134 83 135 107 135 106 135 83 136 106 136 59 136 59 137 106 137 105 137 59 138 105 138 60 138 60 139 105 139 103 139 60 139 103 139 72 139 72 140 103 140 102 140 72 141 102 141 73 141 85 142 69 142 68 142 85 143 68 143 86 143 86 144 68 144 67 144 86 145 67 145 87 145 87 146 67 146 66 146 87 147 66 147 89 147 89 148 66 148 65 148 89 149 65 149 90 149 90 150 65 150 64 150 90 151 64 151 91 151 91 152 64 152 63 152 91 153 63 153 95 153 95 154 63 154 62 154 95 155 62 155 96 155 96 156 62 156 57 156 96 156 57 156 97 156 97 157 57 157 56 157 97 157 56 157 98 157 98 158 56 158 78 158 98 159 78 159 99 159 30 28 136 28 31 28 31 28 136 28 137 28 138 28 31 28 139 28 139 28 31 28 137 28 139 28 137 28 5 28 5 28 137 28 2 28 140 42 141 42 40 42 42 42 142 42 143 42 13 42 15 42 143 42 143 42 15 42 140 42 143 42 140 42 42 42 42 42 140 42 40 42 42 61 31 61 142 61 142 61 31 61 138 61 142 13 138 13 143 13 143 13 138 13 139 13 143 61 139 61 13 61 13 61 139 61 5 61 15 56 2 56 140 56 140 56 2 56 137 56 140 13 137 13 141 13 141 13 137 13 136 13 141 56 136 56 40 56 40 56 136 56 30 56</p>
        </triangles>
      </mesh>
    </geometry>
  </library_geometries>
  <library_visual_scenes>
    <visual_scene id="Scene" name="Scene">
      <node id="slider_rev" name="slider rev" type="NODE">
        <matrix sid="transform">9.99987e-4 0 0 -0.0859025 0 9.99987e-4 0 0.02183614 0 0 9.99987e-4 0.01269986 0 0 0 1</matrix>
        <instance_geometry url="#slider_rev-mesh" name="slider rev">
          <bind_material>
            <technique_common>
              <instance_material symbol="Material_001-material" target="#Material_001-material"/>
            </technique_common>
          </bind_material>
        </instance_geometry>
      </node>
    </visual_scene>
  </library_visual_scenes>
  <scene>
    <instance_visual_scene url="#Scene"/>
  </scene>
</COLLADA>