<?xml version="1.0" encoding="utf-8"?>
<COLLADA xmlns="http://www.collada.org/2005/11/COLLADASchema" version="1.4.1" xmlns:xsi="http://www.w3.org/2001/XMLSchema-instance">
  <asset>
    <contributor>
      <author>Blender User</author>
      <authoring_tool>Blender 3.6.0 commit date:2023-06-27, commit time:08:08, hash:c7fc78b81ecb</authoring_tool>
    </contributor>
    <created>2023-09-18T18:17:18</created>
    <modified>2023-09-18T18:17:18</modified>
    <unit name="meter" meter="1"/>
    <up_axis>Z_UP</up_axis>
  </asset>
  <library_effects>
    <effect id="Material_001-effect">
      <profile_COMMON>
        <technique sid="common">
          <lambert>
            <emission>
              <color sid="emission">0 0 0 1</color>
            </emission>
            <diffuse>
              <color sid="diffuse">0.01466943 0.01466943 0.01466943 1</color>
            </diffuse>
            <index_of_refraction>
              <float sid="ior">1.45</float>
            </index_of_refraction>
          </lambert>
        </technique>
      </profile_COMMON>
    </effect>
  </library_effects>
  <library_images/>
  <library_materials>
    <material id="Material_001-material" name="Material.001">
      <instance_effect url="#Material_001-effect"/>
    </material>
  </library_materials>
  <library_geometries>
    <geometry id="slider_reg-mesh" name="slider reg">
      <mesh>
        <source id="slider_reg-mesh-positions">
          <float_array id="slider_reg-mesh-positions-array" count="612">45.18053 -24.81948 7.700002 42.18053 -24.81948 2.100001 45.18053 -24.81948 -7.699999 42.18053 -24.81948 -2.1 45.15834 -24.81948 -8.170541 40.65107 -24.81948 -12.67781 45.00332 -24.81948 -9.019366 44.70466 -24.81948 -9.828897 42.30943 -24.81948 -12.22414 43.05556 -24.81948 -11.79075 43.71607 -24.81948 -11.23553 40.65107 -24.81948 12.67781 40.18053 -24.81948 12.7 -11.81947 -24.81948 2.100001 -19.81947 -24.81948 12.7 -11.81947 -24.81948 -2.1 -19.81947 -24.81948 -12.7 40.18053 -24.81948 -12.7 41.4999 -24.81948 -12.52279 44.27127 -24.81948 -10.57503 45.00332 -24.81948 9.019365 43.05556 -24.81948 11.79075 42.30943 -24.81948 12.22414 44.70466 -24.81948 9.828897 44.27127 -24.81948 10.57503 43.71607 -24.81948 11.23553 45.15834 -24.81948 8.170543 41.4999 -24.81948 12.52279 45.18053 -14.81947 7.700002 45.18053 -14.81947 -7.699999 40.18053 -14.81947 -7.699999 40.18053 -14.81947 -12.7 -14.81947 -14.81947 -12.7 42.18053 -14.81947 -5 -11.81947 -14.81947 -5 -11.81947 -14.81947 5 -14.81947 -14.81947 12.7 40.18053 -14.81947 12.7 40.18053 -14.81947 7.700002 42.18053 -14.81947 5 -14.81947 -11.81947 -5 -14.81947 40.18053 -7.699999 -14.81947 42.18053 -5 -14.81947 45.18053 -7.699999 -14.81947 42.18053 5 -14.81947 40.18053 7.700002 -14.81947 40.18053 12.7 -14.81947 45.18053 7.700002 -14.81947 -11.81947 5 -14.81947 40.18053 -12.7 -24.81947 45.18053 -7.699999 -24.81947 45.18053 7.700002 -24.81947 42.18053 2.100001 -24.81947 40.18053 12.7 -24.81947 40.65107 12.67781 -24.81947 -19.81948 12.7 -24.81947 -11.81947 2.100001 -24.81947 -19.81948 -12.7 -24.81947 -11.81947 -2.1 -24.81947 40.18053 -12.7 -24.81947 42.18053 -2.1 -24.81947 40.65107 -12.67781 -24.81947 43.05556 11.79075 -24.81947 43.71606 11.23553 -24.81947 44.27127 10.57503 -24.81947 41.49989 12.52279 -24.81947 45.00332 9.019365 -24.81947 45.15834 8.170543 -24.81947 45.15834 -8.170541 -24.81947 45.00332 -9.019366 -24.81947 42.30942 12.22414 -24.81947 44.70466 9.828897 -24.81947 44.70466 -9.828897 -24.81947 44.27127 -10.57503 -24.81947 43.71606 -11.23553 -24.81947 43.05556 -11.79075 -24.81947 42.30942 -12.22414 -24.81947 41.49989 -12.52279 -21.36456 -24.57476 12.7 -22.08942 -24.27451 12.7 -22.7584 -23.86456 12.7 -20.60165 -24.75792 12.7 -24.75791 -20.60165 12.7 -24.57476 -21.36456 12.7 -24.27451 -22.08943 12.7 -23.86456 -22.7584 12.7 -23.35501 -23.35501 12.7 -24.27451 -22.08943 -12.7 -23.86456 -22.7584 -12.7 -23.35501 -23.35501 -12.7 -24.57476 -21.36456 -12.7 -24.75791 -20.60165 -12.7 -20.60165 -24.75792 -12.7 -21.36456 -24.57476 -12.7 -22.08942 -24.27451 -12.7 -22.7584 -23.86456 -12.7 -11.81947 -17.81948 5 -11.81947 -17.81948 2.100001 -11.81947 -17.81948 -5 -11.81947 -17.81948 -2.1 42.18053 -17.81948 -5 42.18053 -17.81948 -2.1 42.18053 -17.81948 5 42.18053 -17.81948 2.100001 -17.81947 -11.81947 2.100001 -17.81947 -11.81947 5 -17.81947 -11.81947 -5 -17.81947 -11.81947 -2.1 -17.81947 42.18053 -2.1 -17.81947 42.18053 -5 -17.81947 42.18053 5 -17.81947 42.18053 2.100001 -14.81947 45.16192 -8.131035 -14.81947 40.31821 -12.6981 -14.81947 45.15834 -8.170541 -14.81947 45.10379 -8.572658 -14.81947 45.00332 -9.019366 -14.81947 44.90123 -9.347721 -14.81947 44.27127 -10.57503 -14.81947 44.5983 -10.04165 -14.81947 44.70466 -9.828897 -14.81947 44.22272 -10.64289 -14.81947 43.80144 -11.14804 -14.81947 43.05556 -11.79075 -14.81947 43.44758 -11.48502 -14.81947 43.71606 -11.23553 -14.81947 42.30942 -12.22414 -14.81947 42.54719 -12.10442 -14.81947 42.9965 -11.83162 -14.81947 41.49989 -12.52279 -14.81947 41.67036 -12.47288 -14.81947 42.10242 -12.31588 -14.81947 41.21155 -12.59254 -14.81947 40.75989 -12.66632 -14.81947 40.65107 -12.67781 -14.81947 40.65107 12.67781 -14.81947 40.31821 12.6981 -14.81947 45.16192 8.131036 -14.81947 45.15834 8.170543 -14.81947 45.10379 8.57266 -14.81947 45.00332 9.019365 -14.81947 44.90123 9.347721 -14.81947 44.70466 9.828897 -14.81947 44.5983 10.04165 -14.81947 44.27127 10.57503 -14.81947 44.22272 10.64289 -14.81947 43.80144 11.14804 -14.81947 43.44758 11.48502 -14.81947 43.71606 11.23553 -14.81947 42.30942 12.22414 -14.81947 42.54719 12.10441 -14.81947 42.9965 11.83162 -14.81947 43.05556 11.79075 -14.81947 41.67036 12.47288 -14.81947 42.10242 12.31588 -14.81947 40.75989 12.66632 -14.81947 41.21155 12.59255 -14.81947 41.49989 12.52279 40.31821 -14.81947 12.6981 45.16192 -14.81947 8.131036 45.15834 -14.81947 8.170543 45.10379 -14.81947 8.57266 45.00332 -14.81947 9.019365 44.90123 -14.81947 9.347721 44.27127 -14.81947 10.57503 44.5983 -14.81947 10.04165 44.70466 -14.81947 9.828897 44.22273 -14.81947 10.64289 43.80144 -14.81947 11.14804 43.05556 -14.81947 11.79075 43.44758 -14.81947 11.48502 43.71607 -14.81947 11.23553 42.30943 -14.81947 12.22414 42.5472 -14.81947 12.10441 42.99651 -14.81947 11.83162 41.4999 -14.81947 12.52279 41.67036 -14.81947 12.47288 42.10242 -14.81947 12.31588 41.21155 -14.81947 12.59255 40.7599 -14.81947 12.66632 40.65107 -14.81947 12.67781 45.16192 -14.81947 -8.131035 40.65107 -14.81947 -12.67781 40.31821 -14.81947 -12.6981 45.15834 -14.81947 -8.170541 45.10379 -14.81947 -8.572658 45.00332 -14.81947 -9.019366 44.90123 -14.81947 -9.347721 44.70466 -14.81947 -9.828897 44.5983 -14.81947 -10.04165 44.27127 -14.81947 -10.57503 44.22273 -14.81947 -10.64289 43.80144 -14.81947 -11.14804 43.44758 -14.81947 -11.48502 43.71607 -14.81947 -11.23553 42.30943 -14.81947 -12.22414 42.5472 -14.81947 -12.10442 42.99651 -14.81947 -11.83162 43.05556 -14.81947 -11.79075 42.10242 -14.81947 -12.31588 41.67036 -14.81947 -12.47288 40.7599 -14.81947 -12.66632 41.21155 -14.81947 -12.59254 41.4999 -14.81947 -12.52279</float_array>
          <technique_common>
            <accessor source="#slider_reg-mesh-positions-array" count="204" stride="3">
              <param name="X" type="float"/>
              <param name="Y" type="float"/>
              <param name="Z" type="float"/>
            </accessor>
          </technique_common>
        </source>
        <source id="slider_reg-mesh-normals">
          <float_array id="slider_reg-mesh-normals-array" count="912">0 -1 0 0 -1 -9.93483e-6 0 -1 3.78645e-7 0 -1 -7.71678e-7 0 -1 7.71678e-7 0 -1 -2.03695e-5 0 -1 3.197e-6 0 -1 -6.23476e-6 0 -1 5.01666e-6 0 -1 1.52483e-7 0 -1 -6.27762e-6 0 -1 8.5253e-6 1 0 0 0 1 0 0 1 -8.37245e-7 0 1 2.98826e-7 0 1 -2.88242e-7 0 1 4.7095e-7 0 1 -1.13028e-6 0 1 1.13028e-6 1 -3.30277e-7 0 1 -8.00986e-7 0 -1 -1.06106e-5 0 -1 0 0 -1 9.08261e-7 0 -1 -1.24187e-5 0 -1 -1.32111e-6 0 -1 7.5729e-7 0 -1 -2.8315e-6 0 -1 -1.21986e-6 0 -1 8.52528e-6 0 -1 -1.01851e-5 0 -1 2.13133e-6 0 -1 5.09238e-6 0 -1 -7.45034e-6 0 0 0 1 2.0345e-7 0 1 -1.87697e-6 0 1 8.82907e-7 0 1 -4.22145e-7 0 1 2.02014e-7 0 1 7.07048e-7 0 1 0 0 -1 2.21946e-7 0 -1 8.82907e-7 0 -1 -9.38484e-7 0 -1 2.3462e-7 0 -1 -1.65545e-7 0 -1 0 0 -1 7.07048e-7 0 -1 -1 -1.75388e-6 0 -0.9969168 -0.07846617 0 -0.9969178 -0.07845401 0 -0.9723702 -0.2334443 0 -0.9723688 -0.2334502 0 -0.9238795 -0.3826835 0 -0.9238818 -0.3826783 0 -0.8526392 -0.5225003 0 -0.7604091 -0.6494445 0 -0.760406 -0.649448 0 -0.649445 -0.7604086 0 -0.649448 -0.760406 0 -0.5225018 -0.8526383 0 -0.5224963 -0.8526416 0 -0.3826828 -0.9238799 0 -0.2334457 -0.9723699 0 -0.2334442 -0.9723702 0 -0.07846128 -0.9969172 0 -0.07846081 -0.9969173 0 0 0.9990693 -0.04313397 -1.71351e-4 0.9988903 -0.04709815 0 0.01376932 -0.9999052 -4.59358e-4 0.04710596 -0.9988899 0 0.9959269 -0.09016591 0 0.9909226 -0.1344336 -0.001858115 0.9837281 -0.1796539 0 0.9756253 -0.2194432 0 0.9549124 -0.2968876 -0.001787245 0.9381878 -0.346122 0 0.8525189 -0.5226964 -0.001488387 0.8647128 -0.5022645 0 0.8944523 -0.4471634 0 0.9257282 -0.3781895 0 0.8133248 -0.5818101 -6.18218e-4 0.7679758 -0.6404787 -9.05753e-4 0.7654874 -0.6434503 0 0.6149757 -0.7885462 -0.001821637 0.6434535 -0.7654832 0 0.6807106 -0.7325525 0 0.7157223 -0.6983851 0 0.4497219 -0.8931686 -0.001589953 0.5022616 -0.8647142 -4.28698e-4 0.5189823 -0.8547849 0 0.5690872 -0.8222773 0 0.2809734 -0.9597156 -0.00121814 0.3461158 -0.938191 -0.00155276 0.3415296 -0.9398698 0 0.4051846 -0.914235 0 0.2351379 -0.9719621 -0.002236425 0.1612078 -0.986918 -8.24872e-4 0.1796609 -0.9837283 0 0.1049969 -0.9944726 0 0.06085592 -0.9981467 0 0.06085592 0.9981467 -4.59358e-4 0.04710596 0.9988899 0 0.01376932 0.9999052 0 0.9990693 0.04313415 -0.002034783 0.995925 0.09016311 0 0.9988903 0.04709827 0 0.9909226 0.1344336 -0.001858115 0.9837281 0.1796545 0 0.975625 0.2194445 0 0.9549127 0.2968869 -0.001787364 0.938188 0.3461217 0 0.9257282 0.3781895 0 0.8944523 0.4471634 -0.001488387 0.8647128 0.5022645 0 0.8525189 0.5226964 0 0.8133248 0.5818101 -6.50661e-4 0.7654877 0.6434503 -9.52828e-4 0.7679748 0.6404795 -0.001821756 0.6434542 0.7654826 0 0.6807106 0.7325525 0 0.7157261 0.6983811 0 0.4497249 0.8931671 -0.002106189 0.5189787 0.8547847 -5.67981e-4 0.5022614 0.8647156 0 0.5690872 0.8222773 0 0.6149769 0.7885453 -0.001217961 0.3461167 0.9381907 -0.00155276 0.3415313 0.9398691 0 0.4051811 0.9142364 0 0.1049969 0.9944726 -6.20376e-4 0.1612063 0.9869205 -0.001681745 0.1796596 0.9837274 0 0.2351379 0.9719621 0 0.2809785 0.9597141 0.01377457 0 0.9999052 0.04710447 -4.59183e-4 0.9988899 0.9990695 0 0.04313069 0.9988903 -1.70717e-4 0.04709821 0.9959235 0 0.0902028 0.9909237 0 0.1344264 0.9837272 -0.001858115 0.1796596 0.9756272 0 0.2194347 0.9549113 0 0.2968915 0.9381868 -0.001787781 0.3461247 0.8525186 0 0.5226969 0.8647121 -0.001488924 0.5022656 0.8944489 0 0.4471702 0.9257314 0 0.3781818 0.8133379 0 0.5817918 0.7679758 -6.188e-4 0.6404786 0.7654875 -9.05918e-4 0.6434503 0.6149712 0 0.7885497 0.6434565 -0.001821875 0.7654805 0.6807108 0 0.7325522 0.7157163 0 0.6983911 0.4497222 0 0.8931685 0.5022634 -0.001589775 0.8647133 0.5189795 -4.28449e-4 0.8547866 0.5690906 0 0.8222749 0.2809693 0 0.9597167 0.3461173 -0.001217961 0.9381905 0.3415331 -0.00155276 0.9398685 0.4051783 0 0.9142377 0.2351388 0 0.9719619 0.161207 -0.002236187 0.9869182 0.1796595 -8.24774e-4 0.9837285 0.1049968 0 0.9944726 0.06085556 0 0.9981467 0.9990695 0 -0.04313057 0.06085556 0 -0.9981467 0.04710447 -4.59183e-4 -0.9988899 0.01377457 0 -0.9999052 0.9959214 -0.002038657 -0.09020256 0.9988903 0 -0.04709821 0.9909237 0 -0.1344259 0.9837272 -0.001858532 -0.1796593 0.9756276 0 -0.2194333 0.9549108 0 -0.2968928 0.9381868 -0.001787781 -0.3461247 0.9257314 0 -0.3781818 0.8944489 0 -0.4471702 0.8647121 -0.001488924 -0.5022656 0.8525186 0 -0.5226969 0.8133379 0 -0.5817918 0.7654877 -6.51214e-4 -0.6434503 0.7679765 -9.52991e-4 -0.6404774 0.6434546 -0.001822054 -0.7654823 0.6807108 0 -0.7325522 0.7157102 0 -0.6983973 0.4497177 0 -0.8931708 0.5189827 -0.002106368 -0.8547822 0.5022639 -5.68039e-4 -0.8647142 0.5690906 0 -0.8222749 0.6149731 0 -0.7885482 0.4051839 0 -0.9142352 0.3461156 -0.001442551 -0.9381908 0.3415333 -0.001131296 -0.9398691 0.1049968 0 -0.9944726 0.1612074 -6.20482e-4 -0.9869204 0.179661 -0.001681685 -0.9837271 0.2351388 0 -0.9719619 0.2809614 0 -0.9597191 0 0 -1 -0.7071068 -0.7071068 0 0.7067778 0.7067774 0.03051131 0.06073904 0.06074327 0.9963037 0.01377612 0.0137676 0.9998103 0.01376426 0.01376777 0.9998105 0.06074327 0.06074315 0.9963035 0.1044193 0.1044226 0.9890362 0.1044148 0.1044229 0.9890366 0.1591523 0.1591519 0.9743415 0.1591528 0.1591522 0.9743413 0.2289038 0.2288974 0.9461549 0.2288904 0.2288967 0.9461584 0.2704992 0.2704985 0.9239377 0.2704996 0.2704952 0.9239385 0.3232042 0.3232026 0.8894264 0.323202 0.3232035 0.8894268 0.3755214 0.3755245 0.8473283 0.3755247 0.3755241 0.847327 0.4101538 0.4101551 0.8145839 0.4101508 0.4101534 0.8145862 0.460639 0.4606395 0.7586982 0.460642 0.4606394 0.7586965 0.5238427 0.5238426 0.6716977 0.4945967 0.4946122 0.7146559 0.4945985 0.4946083 0.7146572 0.5238424 0.5238417 0.6716986 0.5627123 0.5627124 0.6055657 0.562714 0.5627128 0.6055637 0.5820125 0.5820058 0.567918 0.5820003 0.5820101 0.5679261 0.6090844 0.6090851 0.5079681 0.6090866 0.6090857 0.5079648 0.6309817 0.6309758 0.4513665 0.6309891 0.6309831 0.4513459 0.6487598 0.6487604 0.3977698 0.6487604 0.6487609 0.3977679 0.666677 0.6666763 0.3332934 0.6666741 0.6666758 0.3333004 0.6793298 0.6793328 0.2775214 0.6793313 0.679331 0.2775219 0.6906163 0.6906126 0.2147173 0.6906148 0.6906139 0.2147178 0.6983287 0.6983316 0.1570669 0.6983309 0.6983295 0.1570665 0.7038757 0.7038762 0.09548532 0.7038751 0.7038765 0.09548723 0.7056657 0.7056569 0.06390851 0.7056634 0.7056603 0.06389743 0.7067776 0.7067774 0.03051441 -0.7071068 -0.7071068 0 0.6090841 0.6090869 -0.5079663 0.4606434 0.4606404 -0.758695 0.3232019 0.3232014 -0.8894276 0.1591571 0.1591538 -0.9743404 0.01376205 0.01376783 -0.9998106 0.01378011 0.01376754 -0.9998103 0.06074565 0.06074327 -0.9963033 0.06073909 0.06074315 -0.9963037 0.1044195 0.1044229 -0.9890361 0.1044206 0.1044229 -0.9890361 0.1591535 0.1591541 -0.9743409 0.228897 0.2288978 -0.9461565 0.2288941 0.2288964 -0.9461574 0.2704885 0.2704944 -0.923942 0.2704988 0.2704906 -0.9239402 0.3232018 0.3232014 -0.8894276 0.3755208 0.3755279 -0.847327 0.3755336 0.375526 -0.8473222 0.4101485 0.4101538 -0.8145871 0.4101541 0.4101501 -0.8145862 0.4606406 0.4606424 -0.7586955 0.4945967 0.4946122 -0.7146559 0.4946033 0.4946048 -0.7146564 0.5238423 0.5238401 -0.6717 0.5238406 0.5238425 -0.6716996 0.5627123 0.5627124 -0.6055657 0.5627154 0.5627122 -0.605563 0.5819963 0.5820111 -0.5679292 0.5820071 0.5820034 -0.5679258 0.609087 0.6090847 -0.5079655 0.6309819 0.630976 -0.4513659 0.6309903 0.6309823 -0.4513453 0.6487597 0.6487602 -0.3977702 0.6487604 0.6487609 -0.3977679 0.6666787 0.666675 -0.3332928 0.6666738 0.6666755 -0.3333016 0.6793303 0.6793323 -0.2775211 0.6793313 0.679331 -0.2775219 0.6906164 0.6906123 -0.2147178 0.6906138 0.6906151 -0.214717 0.6983304 0.6983303 -0.1570656 0.6983303 0.6983302 -0.1570666 0.7038749 0.7038769 -0.09548544 0.703876 0.7038756 -0.09548747 0.7056713 0.7056513 -0.06390953 0.7056532 0.7056695 -0.06390738 0.7067782 0.7067769 -0.03051394 0.7067766 0.7067786 -0.03051126</float_array>
          <technique_common>
            <accessor source="#slider_reg-mesh-normals-array" count="304" stride="3">
              <param name="X" type="float"/>
              <param name="Y" type="float"/>
              <param name="Z" type="float"/>
            </accessor>
          </technique_common>
        </source>
        <vertices id="slider_reg-mesh-vertices">
          <input semantic="POSITION" source="#slider_reg-mesh-positions"/>
        </vertices>
        <triangles material="Material_001-material" count="420">
          <input semantic="VERTEX" source="#slider_reg-mesh-vertices" offset="0"/>
          <input semantic="NORMAL" source="#slider_reg-mesh-normals" offset="1"/>
          <p>0 0 1 0 2 0 2 0 1 0 3 0 2 1 3 1 4 1 4 0 3 0 5 0 4 0 5 0 6 0 6 0 5 0 7 0 8 0 9 0 10 0 0 2 11 2 1 2 1 3 11 3 12 3 1 0 12 0 13 0 13 0 12 0 14 0 13 0 14 0 15 0 15 0 14 0 16 0 15 0 16 0 3 0 3 0 16 0 17 0 3 4 17 4 5 4 8 0 10 0 18 0 18 5 10 5 5 5 5 0 10 0 19 0 5 6 19 6 7 6 20 7 21 7 22 7 20 0 23 0 21 0 21 8 23 8 24 8 21 0 24 0 25 0 0 0 26 0 11 0 11 9 26 9 20 9 11 10 20 10 27 10 27 11 20 11 22 11 0 12 2 12 28 12 28 12 2 12 29 12 30 13 31 13 32 13 33 14 30 14 34 14 34 15 30 15 32 15 34 13 32 13 35 13 35 13 32 13 36 13 36 16 37 16 35 16 35 13 37 13 38 13 35 17 38 17 39 17 39 18 38 18 28 18 39 13 28 13 33 13 33 13 28 13 29 13 33 19 29 19 30 19 40 12 41 12 42 12 42 12 41 12 43 12 42 12 43 12 44 12 45 12 46 12 36 12 43 20 47 20 44 20 44 12 47 12 45 12 44 12 45 12 48 12 48 12 45 12 36 12 48 12 36 12 40 12 40 21 36 21 32 21 40 12 32 12 41 12 41 12 32 12 49 12 50 13 51 13 43 13 43 13 51 13 47 13 52 22 53 22 54 22 53 23 52 23 55 23 55 23 52 23 56 23 55 23 56 23 57 23 57 24 56 24 58 24 57 23 58 23 59 23 59 23 58 23 60 23 59 23 60 23 61 23 62 23 63 23 64 23 65 23 66 23 54 23 54 23 66 23 67 23 54 23 67 23 52 23 52 25 67 25 51 25 52 23 51 23 60 23 60 26 51 26 50 26 60 27 50 27 61 27 61 28 50 28 68 28 61 29 68 29 69 29 65 30 70 30 66 30 66 23 70 23 62 23 66 31 62 31 71 31 71 23 62 23 64 23 69 23 72 23 61 23 61 32 72 32 73 32 61 23 73 23 74 23 74 33 75 33 61 33 61 23 75 23 76 23 61 34 76 34 77 34 46 35 53 35 36 35 36 36 53 36 55 36 78 35 36 35 79 35 79 35 36 35 80 35 12 35 37 35 14 35 14 35 37 35 36 35 14 35 36 35 81 35 81 35 36 35 78 35 55 37 82 37 36 37 36 38 82 38 83 38 36 39 83 39 84 39 84 35 85 35 36 35 36 40 85 40 86 40 36 41 86 41 80 41 32 42 31 42 17 42 59 42 49 42 57 42 57 43 49 43 32 43 87 42 32 42 88 42 88 42 32 42 89 42 87 42 90 42 32 42 32 44 90 44 91 44 32 45 91 45 57 45 17 42 16 42 32 42 32 46 16 46 92 46 32 47 92 47 93 47 93 42 94 42 32 42 32 48 94 48 95 48 32 49 95 49 89 49 35 12 96 12 34 12 34 12 96 12 97 12 98 12 34 12 99 12 99 12 34 12 97 12 99 12 97 12 15 12 15 12 97 12 13 12 33 23 100 23 39 23 39 50 100 50 101 50 102 23 39 23 103 23 103 23 39 23 101 23 103 23 101 23 1 23 1 23 101 23 3 23 33 35 34 35 100 35 100 35 34 35 98 35 100 13 98 13 101 13 101 13 98 13 99 13 101 35 99 35 3 35 3 35 99 35 15 35 1 42 13 42 103 42 103 42 13 42 97 42 103 13 97 13 102 13 102 13 97 13 96 13 102 42 96 42 39 42 39 42 96 42 35 42 104 13 105 13 48 13 40 13 106 13 107 13 58 13 56 13 107 13 107 13 56 13 104 13 107 13 104 13 40 13 40 13 104 13 48 13 108 0 109 0 42 0 44 0 110 0 111 0 52 0 60 0 111 0 111 0 60 0 108 0 111 0 108 0 44 0 44 0 108 0 42 0 111 42 104 42 52 42 52 42 104 42 56 42 60 35 58 35 108 35 108 35 58 35 107 35 108 12 107 12 109 12 109 12 107 12 106 12 109 35 106 35 42 35 42 35 106 35 40 35 44 42 48 42 110 42 110 42 48 42 105 42 110 12 105 12 111 12 111 12 105 12 104 12 55 51 57 51 91 51 55 52 91 52 82 52 82 53 91 53 90 53 82 54 90 54 83 54 83 55 90 55 87 55 83 56 87 56 84 56 84 57 87 57 88 57 84 57 88 57 85 57 85 58 88 58 89 58 85 59 89 59 86 59 86 60 89 60 95 60 86 61 95 61 80 61 80 62 95 62 94 62 80 63 94 63 79 63 79 64 94 64 93 64 79 64 93 64 78 64 78 65 93 65 92 65 78 66 92 66 81 66 81 67 92 67 16 67 81 68 16 68 14 68 43 69 112 69 50 69 50 70 112 70 68 70 49 71 59 71 113 71 113 72 59 72 61 72 112 73 114 73 68 73 68 74 114 74 115 74 68 75 115 75 69 75 115 76 116 76 69 76 69 77 116 77 117 77 69 78 117 78 72 78 118 79 73 79 119 79 119 80 73 80 72 80 119 81 72 81 120 81 120 82 72 82 117 82 118 83 121 83 73 83 73 84 121 84 122 84 73 85 122 85 74 85 123 86 75 86 124 86 124 87 75 87 74 87 124 88 74 88 125 88 125 89 74 89 122 89 126 90 76 90 127 90 127 91 76 91 75 91 127 92 75 92 128 92 128 93 75 93 123 93 129 94 77 94 130 94 130 95 77 95 76 95 130 96 76 96 131 96 131 97 76 97 126 97 129 98 132 98 77 98 77 99 132 99 133 99 77 100 133 100 61 100 61 101 133 101 134 101 61 102 134 102 113 102 135 103 54 103 136 103 136 104 54 104 53 104 136 105 53 105 46 105 137 106 47 106 51 106 137 107 51 107 138 107 138 108 51 108 67 108 138 109 67 109 139 109 139 110 67 110 66 110 139 111 66 111 140 111 140 112 66 112 141 112 141 113 66 113 71 113 141 114 71 114 142 114 142 115 71 115 143 115 143 116 71 116 64 116 143 117 64 117 144 117 144 118 64 118 145 118 145 119 64 119 63 119 145 120 63 120 146 120 62 121 147 121 63 121 63 122 147 122 148 122 63 123 148 123 146 123 149 124 150 124 70 124 70 125 150 125 151 125 70 126 151 126 62 126 62 127 151 127 152 127 62 128 152 128 147 128 65 129 153 129 70 129 70 130 153 130 154 130 70 131 154 131 149 131 135 132 155 132 54 132 54 133 155 133 156 133 54 134 156 134 65 134 65 135 156 135 157 135 65 136 157 136 153 136 37 137 12 137 158 137 158 138 12 138 11 138 28 139 159 139 0 139 0 140 159 140 26 140 159 141 160 141 26 141 26 142 160 142 161 142 26 143 161 143 20 143 161 144 162 144 20 144 20 145 162 145 163 145 20 146 163 146 23 146 164 147 24 147 165 147 165 148 24 148 23 148 165 149 23 149 166 149 166 150 23 150 163 150 164 151 167 151 24 151 24 152 167 152 168 152 24 153 168 153 25 153 169 154 21 154 170 154 170 155 21 155 25 155 170 156 25 156 171 156 171 157 25 157 168 157 172 158 22 158 173 158 173 159 22 159 21 159 173 160 21 160 174 160 174 161 21 161 169 161 175 162 27 162 176 162 176 163 27 163 22 163 176 164 22 164 177 164 177 165 22 165 172 165 175 166 178 166 27 166 27 167 178 167 179 167 27 168 179 168 11 168 11 169 179 169 180 169 11 170 180 170 158 170 181 171 29 171 2 171 182 172 5 172 183 172 183 173 5 173 17 173 183 174 17 174 31 174 181 175 2 175 184 175 184 176 2 176 4 176 184 177 4 177 185 177 185 178 4 178 6 178 185 179 6 179 186 179 186 180 6 180 187 180 187 181 6 181 7 181 187 182 7 182 188 182 188 183 7 183 189 183 189 184 7 184 19 184 189 185 19 185 190 185 190 186 19 186 191 186 191 187 19 187 10 187 191 188 10 188 192 188 9 189 193 189 10 189 10 190 193 190 194 190 10 191 194 191 192 191 195 192 196 192 8 192 8 193 196 193 197 193 8 194 197 194 9 194 9 195 197 195 198 195 9 196 198 196 193 196 195 197 8 197 199 197 199 198 8 198 18 198 199 199 18 199 200 199 182 200 201 200 5 200 5 201 201 201 202 201 5 202 202 202 18 202 18 203 202 203 203 203 18 204 203 204 200 204 38 42 45 42 28 42 28 205 45 205 47 205 37 206 46 206 38 206 38 206 46 206 45 206 28 207 47 207 137 207 135 208 136 208 158 208 158 209 136 209 46 209 158 210 46 210 37 210 158 211 180 211 135 211 135 212 180 212 179 212 135 213 179 213 155 213 155 214 179 214 178 214 155 215 178 215 156 215 156 216 178 216 157 216 178 217 175 217 157 217 157 218 175 218 176 218 157 219 176 219 153 219 153 220 176 220 177 220 153 221 177 221 154 221 154 222 177 222 149 222 177 223 172 223 149 223 149 224 172 224 173 224 149 225 173 225 150 225 150 226 173 226 174 226 150 227 174 227 151 227 170 228 147 228 152 228 151 229 174 229 152 229 152 230 174 230 169 230 152 231 169 231 170 231 147 232 170 232 148 232 148 233 170 233 171 233 148 234 171 234 146 234 171 235 168 235 146 235 146 236 168 236 167 236 146 237 167 237 145 237 145 238 167 238 164 238 145 239 164 239 144 239 144 240 164 240 165 240 144 241 165 241 143 241 143 242 165 242 142 242 142 243 165 243 166 243 142 244 166 244 141 244 141 245 166 245 163 245 141 246 163 246 140 246 140 247 163 247 162 247 140 248 162 248 139 248 139 249 162 249 161 249 139 250 161 250 138 250 138 251 161 251 160 251 138 252 160 252 137 252 137 253 160 253 159 253 137 254 159 254 28 254 49 255 31 255 41 255 41 206 31 206 30 206 121 256 191 256 192 256 128 257 197 257 196 257 131 258 199 258 200 258 132 259 202 259 201 259 183 260 31 260 113 260 113 261 31 261 49 261 183 262 113 262 182 262 182 263 113 263 134 263 182 264 134 264 201 264 201 265 134 265 133 265 201 266 133 266 132 266 202 267 132 267 203 267 203 268 132 268 129 268 203 269 129 269 200 269 200 270 129 270 130 270 200 271 130 271 131 271 199 272 131 272 195 272 195 273 131 273 126 273 195 274 126 274 196 274 196 275 126 275 127 275 196 276 127 276 128 276 197 277 128 277 198 277 198 278 128 278 123 278 198 279 123 279 193 279 193 280 123 280 124 280 193 281 124 281 194 281 194 282 124 282 125 282 194 283 125 283 192 283 192 284 125 284 122 284 192 285 122 285 121 285 191 286 121 286 190 286 190 287 121 287 118 287 190 288 118 288 189 288 118 289 119 289 189 289 189 290 119 290 120 290 189 291 120 291 188 291 188 292 120 292 117 292 188 293 117 293 187 293 187 294 117 294 116 294 187 295 116 295 186 295 186 296 116 296 115 296 186 297 115 297 185 297 185 298 115 298 114 298 185 299 114 299 184 299 184 300 114 300 112 300 184 301 112 301 181 301 181 302 112 302 43 302 181 303 43 303 29 303 41 35 30 35 43 35 43 35 30 35 29 35</p>
        </triangles>
      </mesh>
    </geometry>
  </library_geometries>
  <library_visual_scenes>
    <visual_scene id="Scene" name="Scene">
      <node id="slider_reg" name="slider reg" type="NODE">
        <matrix sid="transform">9.99987e-4 0 0 0.02481925 0 9.99987e-4 0 -0.09725665 0 0 9.99987e-4 0.01271034 0 0 0 1</matrix>
        <instance_geometry url="#slider_reg-mesh" name="slider reg">
          <bind_material>
            <technique_common>
              <instance_material symbol="Material_001-material" target="#Material_001-material"/>
            </technique_common>
          </bind_material>
        </instance_geometry>
      </node>
    </visual_scene>
  </library_visual_scenes>
  <scene>
    <instance_visual_scene url="#Scene"/>
  </scene>
</COLLADA>